<mxfile host="app.diagrams.net" agent="Mozilla/5.0 (Windows NT 10.0; Win64; x64) AppleWebKit/537.36 (KHTML, like Gecko) Chrome/133.0.0.0 Safari/537.36" version="26.0.16">
  <diagram name="Page-1" id="cN2wNPj6D5wwiDOdom7u">
    <mxGraphModel dx="4350" dy="1740" grid="1" gridSize="10" guides="1" tooltips="1" connect="1" arrows="1" fold="1" page="1" pageScale="1" pageWidth="850" pageHeight="1100" math="0" shadow="0">
      <root>
        <mxCell id="0" />
        <mxCell id="1" parent="0" />
        <mxCell id="kJkZv-Xm9j-CdwpZjZzw-2" value="" style="endArrow=classic;html=1;rounded=0;" edge="1" parent="1">
          <mxGeometry width="50" height="50" relative="1" as="geometry">
            <mxPoint x="60" y="370" as="sourcePoint" />
            <mxPoint x="130" y="370" as="targetPoint" />
          </mxGeometry>
        </mxCell>
        <mxCell id="kJkZv-Xm9j-CdwpZjZzw-3" value="" style="endArrow=classic;html=1;rounded=0;" edge="1" parent="1">
          <mxGeometry width="50" height="50" relative="1" as="geometry">
            <mxPoint x="60" y="390" as="sourcePoint" />
            <mxPoint x="130" y="390" as="targetPoint" />
          </mxGeometry>
        </mxCell>
        <mxCell id="kJkZv-Xm9j-CdwpZjZzw-4" value="" style="endArrow=classic;html=1;rounded=0;" edge="1" parent="1">
          <mxGeometry width="50" height="50" relative="1" as="geometry">
            <mxPoint x="60" y="420" as="sourcePoint" />
            <mxPoint x="130" y="420" as="targetPoint" />
            <Array as="points">
              <mxPoint x="90" y="420" />
            </Array>
          </mxGeometry>
        </mxCell>
        <mxCell id="kJkZv-Xm9j-CdwpZjZzw-6" value="" style="shape=or;whiteSpace=wrap;html=1;" vertex="1" parent="1">
          <mxGeometry x="430" y="358" width="70" height="110" as="geometry" />
        </mxCell>
        <mxCell id="kJkZv-Xm9j-CdwpZjZzw-7" value="" style="triangle;whiteSpace=wrap;html=1;" vertex="1" parent="1">
          <mxGeometry x="200" y="375" width="50" height="30" as="geometry" />
        </mxCell>
        <mxCell id="kJkZv-Xm9j-CdwpZjZzw-8" value="" style="ellipse;whiteSpace=wrap;html=1;aspect=fixed;" vertex="1" parent="1">
          <mxGeometry x="250" y="380" width="20" height="20" as="geometry" />
        </mxCell>
        <mxCell id="kJkZv-Xm9j-CdwpZjZzw-9" value="" style="triangle;whiteSpace=wrap;html=1;" vertex="1" parent="1">
          <mxGeometry x="200" y="408" width="50" height="30" as="geometry" />
        </mxCell>
        <mxCell id="kJkZv-Xm9j-CdwpZjZzw-10" value="" style="ellipse;whiteSpace=wrap;html=1;aspect=fixed;" vertex="1" parent="1">
          <mxGeometry x="250" y="413" width="20" height="20" as="geometry" />
        </mxCell>
        <mxCell id="kJkZv-Xm9j-CdwpZjZzw-11" value="" style="triangle;whiteSpace=wrap;html=1;" vertex="1" parent="1">
          <mxGeometry x="200" y="438" width="50" height="30" as="geometry" />
        </mxCell>
        <mxCell id="kJkZv-Xm9j-CdwpZjZzw-12" value="" style="ellipse;whiteSpace=wrap;html=1;aspect=fixed;" vertex="1" parent="1">
          <mxGeometry x="250" y="443" width="20" height="20" as="geometry" />
        </mxCell>
        <mxCell id="kJkZv-Xm9j-CdwpZjZzw-13" value="num[0]" style="text;html=1;align=center;verticalAlign=middle;resizable=0;points=[];autosize=1;strokeColor=none;fillColor=none;" vertex="1" parent="1">
          <mxGeometry x="40" y="338" width="60" height="30" as="geometry" />
        </mxCell>
        <mxCell id="kJkZv-Xm9j-CdwpZjZzw-14" value="num[1]" style="text;html=1;align=center;verticalAlign=middle;resizable=0;points=[];autosize=1;strokeColor=none;fillColor=none;" vertex="1" parent="1">
          <mxGeometry x="50" y="368" width="60" height="30" as="geometry" />
        </mxCell>
        <mxCell id="kJkZv-Xm9j-CdwpZjZzw-15" value="num[2]" style="text;html=1;align=center;verticalAlign=middle;resizable=0;points=[];autosize=1;strokeColor=none;fillColor=none;" vertex="1" parent="1">
          <mxGeometry x="40" y="398" width="60" height="30" as="geometry" />
        </mxCell>
        <mxCell id="kJkZv-Xm9j-CdwpZjZzw-17" value="" style="endArrow=classic;html=1;rounded=0;entryX=-0.014;entryY=0.167;entryDx=0;entryDy=0;entryPerimeter=0;" edge="1" parent="1" target="kJkZv-Xm9j-CdwpZjZzw-6">
          <mxGeometry width="50" height="50" relative="1" as="geometry">
            <mxPoint x="130" y="370" as="sourcePoint" />
            <mxPoint x="180" y="320" as="targetPoint" />
          </mxGeometry>
        </mxCell>
        <mxCell id="kJkZv-Xm9j-CdwpZjZzw-18" value="" style="endArrow=classic;html=1;rounded=0;entryX=0;entryY=0.5;entryDx=0;entryDy=0;" edge="1" parent="1" target="kJkZv-Xm9j-CdwpZjZzw-7">
          <mxGeometry width="50" height="50" relative="1" as="geometry">
            <mxPoint x="130" y="388" as="sourcePoint" />
            <mxPoint x="180" y="338" as="targetPoint" />
          </mxGeometry>
        </mxCell>
        <mxCell id="kJkZv-Xm9j-CdwpZjZzw-19" value="" style="endArrow=classic;html=1;rounded=0;entryX=0;entryY=0.5;entryDx=0;entryDy=0;" edge="1" parent="1" target="kJkZv-Xm9j-CdwpZjZzw-9">
          <mxGeometry width="50" height="50" relative="1" as="geometry">
            <mxPoint x="130" y="420" as="sourcePoint" />
            <mxPoint x="200" y="424" as="targetPoint" />
          </mxGeometry>
        </mxCell>
        <mxCell id="kJkZv-Xm9j-CdwpZjZzw-22" value="" style="endArrow=classic;html=1;rounded=0;" edge="1" parent="1">
          <mxGeometry width="50" height="50" relative="1" as="geometry">
            <mxPoint x="50" y="452" as="sourcePoint" />
            <mxPoint x="120" y="452" as="targetPoint" />
          </mxGeometry>
        </mxCell>
        <mxCell id="kJkZv-Xm9j-CdwpZjZzw-23" value="" style="endArrow=classic;html=1;rounded=0;entryX=0;entryY=0.5;entryDx=0;entryDy=0;" edge="1" parent="1" target="kJkZv-Xm9j-CdwpZjZzw-11">
          <mxGeometry width="50" height="50" relative="1" as="geometry">
            <mxPoint x="120" y="452" as="sourcePoint" />
            <mxPoint x="190" y="454" as="targetPoint" />
          </mxGeometry>
        </mxCell>
        <mxCell id="kJkZv-Xm9j-CdwpZjZzw-24" value="num[3]" style="text;html=1;align=center;verticalAlign=middle;resizable=0;points=[];autosize=1;strokeColor=none;fillColor=none;" vertex="1" parent="1">
          <mxGeometry x="40" y="428" width="60" height="30" as="geometry" />
        </mxCell>
        <mxCell id="kJkZv-Xm9j-CdwpZjZzw-25" value="" style="endArrow=classic;html=1;rounded=0;entryX=0.014;entryY=0.318;entryDx=0;entryDy=0;entryPerimeter=0;" edge="1" parent="1" target="kJkZv-Xm9j-CdwpZjZzw-6">
          <mxGeometry width="50" height="50" relative="1" as="geometry">
            <mxPoint x="270" y="389" as="sourcePoint" />
            <mxPoint x="320" y="389" as="targetPoint" />
          </mxGeometry>
        </mxCell>
        <mxCell id="kJkZv-Xm9j-CdwpZjZzw-26" value="" style="endArrow=classic;html=1;rounded=0;entryX=0.062;entryY=0.561;entryDx=0;entryDy=0;entryPerimeter=0;" edge="1" parent="1" target="kJkZv-Xm9j-CdwpZjZzw-6">
          <mxGeometry width="50" height="50" relative="1" as="geometry">
            <mxPoint x="270" y="422" as="sourcePoint" />
            <mxPoint x="320" y="422" as="targetPoint" />
          </mxGeometry>
        </mxCell>
        <mxCell id="kJkZv-Xm9j-CdwpZjZzw-27" value="" style="endArrow=classic;html=1;rounded=0;" edge="1" parent="1">
          <mxGeometry width="50" height="50" relative="1" as="geometry">
            <mxPoint x="270" y="452" as="sourcePoint" />
            <mxPoint x="430" y="450" as="targetPoint" />
          </mxGeometry>
        </mxCell>
        <mxCell id="kJkZv-Xm9j-CdwpZjZzw-28" value="" style="endArrow=none;html=1;rounded=0;" edge="1" parent="1">
          <mxGeometry width="50" height="50" relative="1" as="geometry">
            <mxPoint x="160" y="510" as="sourcePoint" />
            <mxPoint x="160" y="368" as="targetPoint" />
          </mxGeometry>
        </mxCell>
        <mxCell id="kJkZv-Xm9j-CdwpZjZzw-29" value="" style="endArrow=classic;html=1;rounded=0;" edge="1" parent="1">
          <mxGeometry width="50" height="50" relative="1" as="geometry">
            <mxPoint x="160" y="508" as="sourcePoint" />
            <mxPoint x="210" y="508" as="targetPoint" />
          </mxGeometry>
        </mxCell>
        <mxCell id="kJkZv-Xm9j-CdwpZjZzw-30" value="" style="triangle;whiteSpace=wrap;html=1;" vertex="1" parent="1">
          <mxGeometry x="210" y="490" width="50" height="30" as="geometry" />
        </mxCell>
        <mxCell id="kJkZv-Xm9j-CdwpZjZzw-31" value="" style="ellipse;whiteSpace=wrap;html=1;aspect=fixed;" vertex="1" parent="1">
          <mxGeometry x="260" y="495" width="20" height="20" as="geometry" />
        </mxCell>
        <mxCell id="kJkZv-Xm9j-CdwpZjZzw-32" value="" style="shape=or;whiteSpace=wrap;html=1;" vertex="1" parent="1">
          <mxGeometry x="430" y="480" width="70" height="110" as="geometry" />
        </mxCell>
        <mxCell id="kJkZv-Xm9j-CdwpZjZzw-33" value="" style="endArrow=classic;html=1;rounded=0;entryX=0;entryY=0.25;entryDx=0;entryDy=0;entryPerimeter=0;" edge="1" parent="1" target="kJkZv-Xm9j-CdwpZjZzw-32">
          <mxGeometry width="50" height="50" relative="1" as="geometry">
            <mxPoint x="280" y="508" as="sourcePoint" />
            <mxPoint x="330" y="458" as="targetPoint" />
          </mxGeometry>
        </mxCell>
        <mxCell id="kJkZv-Xm9j-CdwpZjZzw-34" value="" style="endArrow=none;html=1;rounded=0;" edge="1" parent="1">
          <mxGeometry width="50" height="50" relative="1" as="geometry">
            <mxPoint x="310" y="530" as="sourcePoint" />
            <mxPoint x="310" y="388" as="targetPoint" />
          </mxGeometry>
        </mxCell>
        <mxCell id="kJkZv-Xm9j-CdwpZjZzw-35" value="" style="endArrow=none;html=1;rounded=0;" edge="1" parent="1">
          <mxGeometry width="50" height="50" relative="1" as="geometry">
            <mxPoint x="150" y="550" as="sourcePoint" />
            <mxPoint x="150" y="418" as="targetPoint" />
          </mxGeometry>
        </mxCell>
        <mxCell id="kJkZv-Xm9j-CdwpZjZzw-36" value="" style="endArrow=none;html=1;rounded=0;" edge="1" parent="1">
          <mxGeometry width="50" height="50" relative="1" as="geometry">
            <mxPoint x="350" y="3140" as="sourcePoint" />
            <mxPoint x="370" y="550" as="targetPoint" />
          </mxGeometry>
        </mxCell>
        <mxCell id="kJkZv-Xm9j-CdwpZjZzw-37" value="" style="endArrow=classic;html=1;rounded=0;entryX=-0.033;entryY=0.452;entryDx=0;entryDy=0;entryPerimeter=0;" edge="1" parent="1" target="kJkZv-Xm9j-CdwpZjZzw-32">
          <mxGeometry width="50" height="50" relative="1" as="geometry">
            <mxPoint x="310" y="530" as="sourcePoint" />
            <mxPoint x="360" y="480" as="targetPoint" />
          </mxGeometry>
        </mxCell>
        <mxCell id="kJkZv-Xm9j-CdwpZjZzw-38" value="" style="endArrow=classic;html=1;rounded=0;" edge="1" parent="1">
          <mxGeometry width="50" height="50" relative="1" as="geometry">
            <mxPoint x="150" y="549" as="sourcePoint" />
            <mxPoint x="430" y="549" as="targetPoint" />
          </mxGeometry>
        </mxCell>
        <mxCell id="kJkZv-Xm9j-CdwpZjZzw-39" value="" style="endArrow=classic;html=1;rounded=0;" edge="1" parent="1">
          <mxGeometry width="50" height="50" relative="1" as="geometry">
            <mxPoint x="370" y="570" as="sourcePoint" />
            <mxPoint x="430" y="570" as="targetPoint" />
          </mxGeometry>
        </mxCell>
        <mxCell id="kJkZv-Xm9j-CdwpZjZzw-40" value="" style="shape=or;whiteSpace=wrap;html=1;" vertex="1" parent="1">
          <mxGeometry x="430" y="600" width="70" height="100" as="geometry" />
        </mxCell>
        <mxCell id="kJkZv-Xm9j-CdwpZjZzw-41" value="" style="endArrow=none;html=1;rounded=0;" edge="1" parent="1">
          <mxGeometry width="50" height="50" relative="1" as="geometry">
            <mxPoint x="310" y="3260" as="sourcePoint" />
            <mxPoint x="310" y="530" as="targetPoint" />
          </mxGeometry>
        </mxCell>
        <mxCell id="kJkZv-Xm9j-CdwpZjZzw-42" value="" style="endArrow=classic;html=1;rounded=0;entryX=0.014;entryY=0.31;entryDx=0;entryDy=0;entryPerimeter=0;" edge="1" parent="1" target="kJkZv-Xm9j-CdwpZjZzw-40">
          <mxGeometry width="50" height="50" relative="1" as="geometry">
            <mxPoint x="310" y="630" as="sourcePoint" />
            <mxPoint x="360" y="580" as="targetPoint" />
          </mxGeometry>
        </mxCell>
        <mxCell id="kJkZv-Xm9j-CdwpZjZzw-43" value="" style="endArrow=none;html=1;rounded=0;" edge="1" parent="1">
          <mxGeometry width="50" height="50" relative="1" as="geometry">
            <mxPoint x="150" y="3310" as="sourcePoint" />
            <mxPoint x="150" y="550" as="targetPoint" />
          </mxGeometry>
        </mxCell>
        <mxCell id="kJkZv-Xm9j-CdwpZjZzw-44" value="" style="endArrow=classic;html=1;rounded=0;entryX=0;entryY=0.5;entryDx=0;entryDy=0;entryPerimeter=0;" edge="1" parent="1" target="kJkZv-Xm9j-CdwpZjZzw-40">
          <mxGeometry width="50" height="50" relative="1" as="geometry">
            <mxPoint x="150" y="650" as="sourcePoint" />
            <mxPoint x="200" y="600" as="targetPoint" />
          </mxGeometry>
        </mxCell>
        <mxCell id="kJkZv-Xm9j-CdwpZjZzw-45" value="" style="endArrow=none;html=1;rounded=0;" edge="1" parent="1">
          <mxGeometry width="50" height="50" relative="1" as="geometry">
            <mxPoint x="160" y="3180" as="sourcePoint" />
            <mxPoint x="160" y="510" as="targetPoint" />
          </mxGeometry>
        </mxCell>
        <mxCell id="kJkZv-Xm9j-CdwpZjZzw-46" value="" style="endArrow=classic;html=1;rounded=0;entryX=0.014;entryY=0.677;entryDx=0;entryDy=0;entryPerimeter=0;" edge="1" parent="1" target="kJkZv-Xm9j-CdwpZjZzw-40">
          <mxGeometry width="50" height="50" relative="1" as="geometry">
            <mxPoint x="160" y="670" as="sourcePoint" />
            <mxPoint x="210" y="620" as="targetPoint" />
          </mxGeometry>
        </mxCell>
        <mxCell id="kJkZv-Xm9j-CdwpZjZzw-47" value="" style="endArrow=none;html=1;rounded=0;" edge="1" parent="1">
          <mxGeometry width="50" height="50" relative="1" as="geometry">
            <mxPoint x="130" y="3300" as="sourcePoint" />
            <mxPoint x="130" y="450" as="targetPoint" />
          </mxGeometry>
        </mxCell>
        <mxCell id="kJkZv-Xm9j-CdwpZjZzw-48" value="" style="endArrow=classic;html=1;rounded=0;entryX=0;entryY=0.8;entryDx=0;entryDy=0;entryPerimeter=0;" edge="1" parent="1" target="kJkZv-Xm9j-CdwpZjZzw-40">
          <mxGeometry width="50" height="50" relative="1" as="geometry">
            <mxPoint x="130" y="680" as="sourcePoint" />
            <mxPoint x="180" y="630" as="targetPoint" />
          </mxGeometry>
        </mxCell>
        <mxCell id="kJkZv-Xm9j-CdwpZjZzw-49" value="" style="shape=or;whiteSpace=wrap;html=1;" vertex="1" parent="1">
          <mxGeometry x="425" y="710" width="75" height="100" as="geometry" />
        </mxCell>
        <mxCell id="kJkZv-Xm9j-CdwpZjZzw-50" value="" style="endArrow=none;html=1;rounded=0;" edge="1" parent="1">
          <mxGeometry width="50" height="50" relative="1" as="geometry">
            <mxPoint x="280" y="3040" as="sourcePoint" />
            <mxPoint x="280" y="428" as="targetPoint" />
          </mxGeometry>
        </mxCell>
        <mxCell id="kJkZv-Xm9j-CdwpZjZzw-51" value="" style="endArrow=classic;html=1;rounded=0;entryX=0.024;entryY=0.168;entryDx=0;entryDy=0;entryPerimeter=0;" edge="1" parent="1" target="kJkZv-Xm9j-CdwpZjZzw-49">
          <mxGeometry width="50" height="50" relative="1" as="geometry">
            <mxPoint x="280" y="730" as="sourcePoint" />
            <mxPoint x="340" y="680" as="targetPoint" />
          </mxGeometry>
        </mxCell>
        <mxCell id="kJkZv-Xm9j-CdwpZjZzw-52" value="" style="endArrow=classic;html=1;rounded=0;entryX=0.024;entryY=0.345;entryDx=0;entryDy=0;entryPerimeter=0;" edge="1" parent="1" target="kJkZv-Xm9j-CdwpZjZzw-49">
          <mxGeometry width="50" height="50" relative="1" as="geometry">
            <mxPoint x="130" y="740" as="sourcePoint" />
            <mxPoint x="180" y="690" as="targetPoint" />
          </mxGeometry>
        </mxCell>
        <mxCell id="kJkZv-Xm9j-CdwpZjZzw-53" value="" style="endArrow=classic;html=1;rounded=0;entryX=0.067;entryY=0.6;entryDx=0;entryDy=0;entryPerimeter=0;" edge="1" parent="1" target="kJkZv-Xm9j-CdwpZjZzw-49">
          <mxGeometry width="50" height="50" relative="1" as="geometry">
            <mxPoint x="150" y="770" as="sourcePoint" />
            <mxPoint x="200" y="720" as="targetPoint" />
          </mxGeometry>
        </mxCell>
        <mxCell id="kJkZv-Xm9j-CdwpZjZzw-54" value="" style="endArrow=classic;html=1;rounded=0;entryX=0;entryY=0.75;entryDx=0;entryDy=0;entryPerimeter=0;" edge="1" parent="1" target="kJkZv-Xm9j-CdwpZjZzw-49">
          <mxGeometry width="50" height="50" relative="1" as="geometry">
            <mxPoint x="160" y="790" as="sourcePoint" />
            <mxPoint x="210" y="740" as="targetPoint" />
          </mxGeometry>
        </mxCell>
        <mxCell id="kJkZv-Xm9j-CdwpZjZzw-55" value="" style="shape=xor;whiteSpace=wrap;html=1;" vertex="1" parent="1">
          <mxGeometry x="730" y="468" width="110" height="180" as="geometry" />
        </mxCell>
        <mxCell id="kJkZv-Xm9j-CdwpZjZzw-56" value="" style="endArrow=classic;html=1;rounded=0;entryX=0.175;entryY=0.25;entryDx=0;entryDy=0;entryPerimeter=0;" edge="1" parent="1" target="kJkZv-Xm9j-CdwpZjZzw-55">
          <mxGeometry width="50" height="50" relative="1" as="geometry">
            <mxPoint x="500" y="413" as="sourcePoint" />
            <mxPoint x="550" y="363" as="targetPoint" />
          </mxGeometry>
        </mxCell>
        <mxCell id="kJkZv-Xm9j-CdwpZjZzw-58" value="" style="endArrow=classic;html=1;rounded=0;entryX=0.237;entryY=0.437;entryDx=0;entryDy=0;entryPerimeter=0;" edge="1" parent="1" target="kJkZv-Xm9j-CdwpZjZzw-55">
          <mxGeometry width="50" height="50" relative="1" as="geometry">
            <mxPoint x="500" y="545" as="sourcePoint" />
            <mxPoint x="550" y="495" as="targetPoint" />
          </mxGeometry>
        </mxCell>
        <mxCell id="kJkZv-Xm9j-CdwpZjZzw-59" value="" style="endArrow=classic;html=1;rounded=0;entryX=0.214;entryY=0.591;entryDx=0;entryDy=0;entryPerimeter=0;" edge="1" parent="1" target="kJkZv-Xm9j-CdwpZjZzw-55">
          <mxGeometry width="50" height="50" relative="1" as="geometry">
            <mxPoint x="500" y="650" as="sourcePoint" />
            <mxPoint x="550" y="600" as="targetPoint" />
          </mxGeometry>
        </mxCell>
        <mxCell id="kJkZv-Xm9j-CdwpZjZzw-60" value="" style="endArrow=classic;html=1;rounded=0;entryX=0.175;entryY=0.75;entryDx=0;entryDy=0;entryPerimeter=0;" edge="1" parent="1" target="kJkZv-Xm9j-CdwpZjZzw-55">
          <mxGeometry width="50" height="50" relative="1" as="geometry">
            <mxPoint x="500" y="770" as="sourcePoint" />
            <mxPoint x="550" y="720" as="targetPoint" />
          </mxGeometry>
        </mxCell>
        <mxCell id="kJkZv-Xm9j-CdwpZjZzw-61" value="" style="shape=or;whiteSpace=wrap;html=1;" vertex="1" parent="1">
          <mxGeometry x="420" y="830" width="70" height="110" as="geometry" />
        </mxCell>
        <mxCell id="kJkZv-Xm9j-CdwpZjZzw-68" value="" style="endArrow=classic;html=1;rounded=0;entryX=0.014;entryY=0.318;entryDx=0;entryDy=0;entryPerimeter=0;" edge="1" parent="1" target="kJkZv-Xm9j-CdwpZjZzw-61">
          <mxGeometry width="50" height="50" relative="1" as="geometry">
            <mxPoint x="370" y="865" as="sourcePoint" />
            <mxPoint x="310" y="861" as="targetPoint" />
          </mxGeometry>
        </mxCell>
        <mxCell id="kJkZv-Xm9j-CdwpZjZzw-69" value="" style="endArrow=classic;html=1;rounded=0;entryX=0.062;entryY=0.561;entryDx=0;entryDy=0;entryPerimeter=0;" edge="1" parent="1">
          <mxGeometry width="50" height="50" relative="1" as="geometry">
            <mxPoint x="311" y="880" as="sourcePoint" />
            <mxPoint x="425.34000000000015" y="881.7099999999998" as="targetPoint" />
            <Array as="points">
              <mxPoint x="311" y="882" />
            </Array>
          </mxGeometry>
        </mxCell>
        <mxCell id="kJkZv-Xm9j-CdwpZjZzw-75" value="" style="shape=or;whiteSpace=wrap;html=1;" vertex="1" parent="1">
          <mxGeometry x="420" y="952" width="70" height="110" as="geometry" />
        </mxCell>
        <mxCell id="kJkZv-Xm9j-CdwpZjZzw-76" value="" style="endArrow=classic;html=1;rounded=0;entryX=0;entryY=0.25;entryDx=0;entryDy=0;entryPerimeter=0;" edge="1" parent="1" target="kJkZv-Xm9j-CdwpZjZzw-75">
          <mxGeometry width="50" height="50" relative="1" as="geometry">
            <mxPoint x="300" y="980" as="sourcePoint" />
            <mxPoint x="320" y="930" as="targetPoint" />
          </mxGeometry>
        </mxCell>
        <mxCell id="kJkZv-Xm9j-CdwpZjZzw-80" value="" style="endArrow=classic;html=1;rounded=0;entryX=-0.033;entryY=0.452;entryDx=0;entryDy=0;entryPerimeter=0;" edge="1" parent="1" target="kJkZv-Xm9j-CdwpZjZzw-75">
          <mxGeometry width="50" height="50" relative="1" as="geometry">
            <mxPoint x="150" y="1002" as="sourcePoint" />
            <mxPoint x="350" y="952" as="targetPoint" />
          </mxGeometry>
        </mxCell>
        <mxCell id="kJkZv-Xm9j-CdwpZjZzw-81" value="" style="endArrow=classic;html=1;rounded=0;" edge="1" parent="1">
          <mxGeometry width="50" height="50" relative="1" as="geometry">
            <mxPoint x="180" y="1021" as="sourcePoint" />
            <mxPoint x="420" y="1021" as="targetPoint" />
          </mxGeometry>
        </mxCell>
        <mxCell id="kJkZv-Xm9j-CdwpZjZzw-83" value="" style="shape=or;whiteSpace=wrap;html=1;" vertex="1" parent="1">
          <mxGeometry x="420" y="1072" width="70" height="100" as="geometry" />
        </mxCell>
        <mxCell id="kJkZv-Xm9j-CdwpZjZzw-85" value="" style="endArrow=classic;html=1;rounded=0;entryX=0.014;entryY=0.31;entryDx=0;entryDy=0;entryPerimeter=0;" edge="1" parent="1" target="kJkZv-Xm9j-CdwpZjZzw-83">
          <mxGeometry width="50" height="50" relative="1" as="geometry">
            <mxPoint x="300" y="1102" as="sourcePoint" />
            <mxPoint x="350" y="1052" as="targetPoint" />
          </mxGeometry>
        </mxCell>
        <mxCell id="kJkZv-Xm9j-CdwpZjZzw-87" value="" style="endArrow=classic;html=1;rounded=0;entryX=0;entryY=0.5;entryDx=0;entryDy=0;entryPerimeter=0;" edge="1" parent="1" target="kJkZv-Xm9j-CdwpZjZzw-83">
          <mxGeometry width="50" height="50" relative="1" as="geometry">
            <mxPoint x="150" y="1122" as="sourcePoint" />
            <mxPoint x="190" y="1072" as="targetPoint" />
          </mxGeometry>
        </mxCell>
        <mxCell id="kJkZv-Xm9j-CdwpZjZzw-89" value="" style="endArrow=classic;html=1;rounded=0;entryX=0.014;entryY=0.677;entryDx=0;entryDy=0;entryPerimeter=0;" edge="1" parent="1" target="kJkZv-Xm9j-CdwpZjZzw-83">
          <mxGeometry width="50" height="50" relative="1" as="geometry">
            <mxPoint x="130" y="1140" as="sourcePoint" />
            <mxPoint x="200" y="1092" as="targetPoint" />
          </mxGeometry>
        </mxCell>
        <mxCell id="kJkZv-Xm9j-CdwpZjZzw-90" value="" style="shape=or;whiteSpace=wrap;html=1;" vertex="1" parent="1">
          <mxGeometry x="415" y="1182" width="75" height="100" as="geometry" />
        </mxCell>
        <mxCell id="kJkZv-Xm9j-CdwpZjZzw-92" value="" style="endArrow=classic;html=1;rounded=0;entryX=0.024;entryY=0.168;entryDx=0;entryDy=0;entryPerimeter=0;" edge="1" parent="1" target="kJkZv-Xm9j-CdwpZjZzw-90">
          <mxGeometry width="50" height="50" relative="1" as="geometry">
            <mxPoint x="130" y="1199" as="sourcePoint" />
            <mxPoint x="330" y="1152" as="targetPoint" />
          </mxGeometry>
        </mxCell>
        <mxCell id="kJkZv-Xm9j-CdwpZjZzw-93" value="" style="endArrow=classic;html=1;rounded=0;entryX=0.067;entryY=0.6;entryDx=0;entryDy=0;entryPerimeter=0;" edge="1" parent="1">
          <mxGeometry width="50" height="50" relative="1" as="geometry">
            <mxPoint x="180" y="1220" as="sourcePoint" />
            <mxPoint x="420.0050000000001" y="1220" as="targetPoint" />
            <Array as="points">
              <mxPoint x="319.98" y="1220" />
            </Array>
          </mxGeometry>
        </mxCell>
        <mxCell id="kJkZv-Xm9j-CdwpZjZzw-94" value="" style="endArrow=classic;html=1;rounded=0;entryX=0;entryY=0.75;entryDx=0;entryDy=0;entryPerimeter=0;" edge="1" parent="1">
          <mxGeometry width="50" height="50" relative="1" as="geometry">
            <mxPoint x="160" y="1250" as="sourcePoint" />
            <mxPoint x="415" y="1250" as="targetPoint" />
            <Array as="points" />
          </mxGeometry>
        </mxCell>
        <mxCell id="kJkZv-Xm9j-CdwpZjZzw-95" value="" style="shape=xor;whiteSpace=wrap;html=1;" vertex="1" parent="1">
          <mxGeometry x="720" y="940" width="110" height="180" as="geometry" />
        </mxCell>
        <mxCell id="kJkZv-Xm9j-CdwpZjZzw-96" value="" style="endArrow=classic;html=1;rounded=0;entryX=0.175;entryY=0.25;entryDx=0;entryDy=0;entryPerimeter=0;" edge="1" parent="1" target="kJkZv-Xm9j-CdwpZjZzw-95">
          <mxGeometry width="50" height="50" relative="1" as="geometry">
            <mxPoint x="490" y="885" as="sourcePoint" />
            <mxPoint x="540" y="835" as="targetPoint" />
          </mxGeometry>
        </mxCell>
        <mxCell id="kJkZv-Xm9j-CdwpZjZzw-97" value="" style="endArrow=classic;html=1;rounded=0;entryX=0.237;entryY=0.437;entryDx=0;entryDy=0;entryPerimeter=0;" edge="1" parent="1" target="kJkZv-Xm9j-CdwpZjZzw-95">
          <mxGeometry width="50" height="50" relative="1" as="geometry">
            <mxPoint x="490" y="1017" as="sourcePoint" />
            <mxPoint x="540" y="967" as="targetPoint" />
          </mxGeometry>
        </mxCell>
        <mxCell id="kJkZv-Xm9j-CdwpZjZzw-98" value="" style="endArrow=classic;html=1;rounded=0;entryX=0.214;entryY=0.591;entryDx=0;entryDy=0;entryPerimeter=0;" edge="1" parent="1" target="kJkZv-Xm9j-CdwpZjZzw-95">
          <mxGeometry width="50" height="50" relative="1" as="geometry">
            <mxPoint x="490" y="1122" as="sourcePoint" />
            <mxPoint x="540" y="1072" as="targetPoint" />
          </mxGeometry>
        </mxCell>
        <mxCell id="kJkZv-Xm9j-CdwpZjZzw-99" value="" style="endArrow=classic;html=1;rounded=0;entryX=0.175;entryY=0.75;entryDx=0;entryDy=0;entryPerimeter=0;" edge="1" parent="1" target="kJkZv-Xm9j-CdwpZjZzw-95">
          <mxGeometry width="50" height="50" relative="1" as="geometry">
            <mxPoint x="490" y="1242" as="sourcePoint" />
            <mxPoint x="540" y="1192" as="targetPoint" />
          </mxGeometry>
        </mxCell>
        <mxCell id="kJkZv-Xm9j-CdwpZjZzw-100" value="" style="endArrow=classic;html=1;rounded=0;entryX=-0.006;entryY=0.679;entryDx=0;entryDy=0;entryPerimeter=0;" edge="1" parent="1" target="kJkZv-Xm9j-CdwpZjZzw-61">
          <mxGeometry width="50" height="50" relative="1" as="geometry">
            <mxPoint x="160" y="900" as="sourcePoint" />
            <mxPoint x="210" y="850" as="targetPoint" />
          </mxGeometry>
        </mxCell>
        <mxCell id="kJkZv-Xm9j-CdwpZjZzw-101" value="" style="endArrow=classic;html=1;rounded=0;entryX=0.014;entryY=0.824;entryDx=0;entryDy=0;entryPerimeter=0;" edge="1" parent="1" target="kJkZv-Xm9j-CdwpZjZzw-61">
          <mxGeometry width="50" height="50" relative="1" as="geometry">
            <mxPoint x="150" y="921" as="sourcePoint" />
            <mxPoint x="180" y="870" as="targetPoint" />
          </mxGeometry>
        </mxCell>
        <mxCell id="kJkZv-Xm9j-CdwpZjZzw-102" value="" style="endArrow=none;html=1;rounded=0;" edge="1" parent="1">
          <mxGeometry width="50" height="50" relative="1" as="geometry">
            <mxPoint x="300" y="3280" as="sourcePoint" />
            <mxPoint x="300" y="510" as="targetPoint" />
          </mxGeometry>
        </mxCell>
        <mxCell id="kJkZv-Xm9j-CdwpZjZzw-103" value="" style="endArrow=none;html=1;rounded=0;" edge="1" parent="1">
          <mxGeometry width="50" height="50" relative="1" as="geometry">
            <mxPoint x="180" y="3200" as="sourcePoint" />
            <mxPoint x="180" y="388" as="targetPoint" />
          </mxGeometry>
        </mxCell>
        <mxCell id="kJkZv-Xm9j-CdwpZjZzw-143" value="" style="shape=or;whiteSpace=wrap;html=1;" vertex="1" parent="1">
          <mxGeometry x="410" y="1330" width="70" height="110" as="geometry" />
        </mxCell>
        <mxCell id="kJkZv-Xm9j-CdwpZjZzw-144" value="" style="endArrow=classic;html=1;rounded=0;entryX=0.014;entryY=0.318;entryDx=0;entryDy=0;entryPerimeter=0;" edge="1" parent="1" target="kJkZv-Xm9j-CdwpZjZzw-143">
          <mxGeometry width="50" height="50" relative="1" as="geometry">
            <mxPoint x="360" y="1365" as="sourcePoint" />
            <mxPoint x="300" y="1361" as="targetPoint" />
            <Array as="points">
              <mxPoint x="180" y="1365" />
              <mxPoint x="360" y="1365" />
            </Array>
          </mxGeometry>
        </mxCell>
        <mxCell id="kJkZv-Xm9j-CdwpZjZzw-145" value="" style="endArrow=classic;html=1;rounded=0;entryX=0.062;entryY=0.561;entryDx=0;entryDy=0;entryPerimeter=0;" edge="1" parent="1">
          <mxGeometry width="50" height="50" relative="1" as="geometry">
            <mxPoint x="301" y="1380" as="sourcePoint" />
            <mxPoint x="415.34000000000015" y="1381.7099999999998" as="targetPoint" />
            <Array as="points">
              <mxPoint x="301" y="1382" />
            </Array>
          </mxGeometry>
        </mxCell>
        <mxCell id="kJkZv-Xm9j-CdwpZjZzw-146" value="" style="shape=or;whiteSpace=wrap;html=1;" vertex="1" parent="1">
          <mxGeometry x="410" y="1452" width="70" height="110" as="geometry" />
        </mxCell>
        <mxCell id="kJkZv-Xm9j-CdwpZjZzw-147" value="" style="endArrow=classic;html=1;rounded=0;entryX=0;entryY=0.25;entryDx=0;entryDy=0;entryPerimeter=0;" edge="1" parent="1" target="kJkZv-Xm9j-CdwpZjZzw-146">
          <mxGeometry width="50" height="50" relative="1" as="geometry">
            <mxPoint x="300" y="1480" as="sourcePoint" />
            <mxPoint x="310" y="1430" as="targetPoint" />
          </mxGeometry>
        </mxCell>
        <mxCell id="kJkZv-Xm9j-CdwpZjZzw-148" value="" style="endArrow=classic;html=1;rounded=0;entryX=-0.033;entryY=0.452;entryDx=0;entryDy=0;entryPerimeter=0;" edge="1" parent="1" target="kJkZv-Xm9j-CdwpZjZzw-146">
          <mxGeometry width="50" height="50" relative="1" as="geometry">
            <mxPoint x="150" y="1502" as="sourcePoint" />
            <mxPoint x="340" y="1452" as="targetPoint" />
          </mxGeometry>
        </mxCell>
        <mxCell id="kJkZv-Xm9j-CdwpZjZzw-149" value="" style="endArrow=classic;html=1;rounded=0;" edge="1" parent="1">
          <mxGeometry width="50" height="50" relative="1" as="geometry">
            <mxPoint x="130" y="1521" as="sourcePoint" />
            <mxPoint x="410" y="1521" as="targetPoint" />
          </mxGeometry>
        </mxCell>
        <mxCell id="kJkZv-Xm9j-CdwpZjZzw-150" value="" style="shape=or;whiteSpace=wrap;html=1;" vertex="1" parent="1">
          <mxGeometry x="410" y="1572" width="70" height="100" as="geometry" />
        </mxCell>
        <mxCell id="kJkZv-Xm9j-CdwpZjZzw-151" value="" style="endArrow=classic;html=1;rounded=0;entryX=0.014;entryY=0.31;entryDx=0;entryDy=0;entryPerimeter=0;" edge="1" parent="1" target="kJkZv-Xm9j-CdwpZjZzw-150">
          <mxGeometry width="50" height="50" relative="1" as="geometry">
            <mxPoint x="180" y="1603" as="sourcePoint" />
            <mxPoint x="340" y="1552" as="targetPoint" />
          </mxGeometry>
        </mxCell>
        <mxCell id="kJkZv-Xm9j-CdwpZjZzw-152" value="" style="endArrow=classic;html=1;rounded=0;entryX=0;entryY=0.5;entryDx=0;entryDy=0;entryPerimeter=0;" edge="1" parent="1" target="kJkZv-Xm9j-CdwpZjZzw-150">
          <mxGeometry width="50" height="50" relative="1" as="geometry">
            <mxPoint x="150" y="1622" as="sourcePoint" />
            <mxPoint x="180" y="1572" as="targetPoint" />
          </mxGeometry>
        </mxCell>
        <mxCell id="kJkZv-Xm9j-CdwpZjZzw-153" value="" style="endArrow=classic;html=1;rounded=0;entryX=0.014;entryY=0.677;entryDx=0;entryDy=0;entryPerimeter=0;" edge="1" parent="1" target="kJkZv-Xm9j-CdwpZjZzw-150">
          <mxGeometry width="50" height="50" relative="1" as="geometry">
            <mxPoint x="130" y="1640" as="sourcePoint" />
            <mxPoint x="190" y="1592" as="targetPoint" />
          </mxGeometry>
        </mxCell>
        <mxCell id="kJkZv-Xm9j-CdwpZjZzw-158" value="" style="shape=xor;whiteSpace=wrap;html=1;" vertex="1" parent="1">
          <mxGeometry x="710" y="1440" width="110" height="180" as="geometry" />
        </mxCell>
        <mxCell id="kJkZv-Xm9j-CdwpZjZzw-159" value="" style="endArrow=classic;html=1;rounded=0;entryX=0.175;entryY=0.25;entryDx=0;entryDy=0;entryPerimeter=0;" edge="1" parent="1" target="kJkZv-Xm9j-CdwpZjZzw-158">
          <mxGeometry width="50" height="50" relative="1" as="geometry">
            <mxPoint x="480" y="1385" as="sourcePoint" />
            <mxPoint x="530" y="1335" as="targetPoint" />
          </mxGeometry>
        </mxCell>
        <mxCell id="kJkZv-Xm9j-CdwpZjZzw-160" value="" style="endArrow=classic;html=1;rounded=0;entryX=0.237;entryY=0.437;entryDx=0;entryDy=0;entryPerimeter=0;" edge="1" parent="1" target="kJkZv-Xm9j-CdwpZjZzw-158">
          <mxGeometry width="50" height="50" relative="1" as="geometry">
            <mxPoint x="480" y="1517" as="sourcePoint" />
            <mxPoint x="530" y="1467" as="targetPoint" />
          </mxGeometry>
        </mxCell>
        <mxCell id="kJkZv-Xm9j-CdwpZjZzw-161" value="" style="endArrow=classic;html=1;rounded=0;entryX=0.214;entryY=0.591;entryDx=0;entryDy=0;entryPerimeter=0;" edge="1" parent="1" target="kJkZv-Xm9j-CdwpZjZzw-158">
          <mxGeometry width="50" height="50" relative="1" as="geometry">
            <mxPoint x="480" y="1622" as="sourcePoint" />
            <mxPoint x="530" y="1572" as="targetPoint" />
          </mxGeometry>
        </mxCell>
        <mxCell id="kJkZv-Xm9j-CdwpZjZzw-163" value="" style="endArrow=classic;html=1;rounded=0;" edge="1" parent="1">
          <mxGeometry width="50" height="50" relative="1" as="geometry">
            <mxPoint x="290" y="1400" as="sourcePoint" />
            <mxPoint x="410" y="1400" as="targetPoint" />
          </mxGeometry>
        </mxCell>
        <mxCell id="kJkZv-Xm9j-CdwpZjZzw-164" value="" style="endArrow=classic;html=1;rounded=0;entryX=0.014;entryY=0.824;entryDx=0;entryDy=0;entryPerimeter=0;" edge="1" parent="1" target="kJkZv-Xm9j-CdwpZjZzw-143">
          <mxGeometry width="50" height="50" relative="1" as="geometry">
            <mxPoint x="360" y="1421" as="sourcePoint" />
            <mxPoint x="170" y="1370" as="targetPoint" />
          </mxGeometry>
        </mxCell>
        <mxCell id="kJkZv-Xm9j-CdwpZjZzw-165" value="" style="shape=or;whiteSpace=wrap;html=1;" vertex="1" parent="1">
          <mxGeometry x="385" y="1690" width="70" height="110" as="geometry" />
        </mxCell>
        <mxCell id="kJkZv-Xm9j-CdwpZjZzw-166" value="" style="endArrow=classic;html=1;rounded=0;entryX=0.014;entryY=0.318;entryDx=0;entryDy=0;entryPerimeter=0;" edge="1" parent="1" target="kJkZv-Xm9j-CdwpZjZzw-165">
          <mxGeometry width="50" height="50" relative="1" as="geometry">
            <mxPoint x="160" y="1720" as="sourcePoint" />
            <mxPoint x="275" y="1721" as="targetPoint" />
          </mxGeometry>
        </mxCell>
        <mxCell id="kJkZv-Xm9j-CdwpZjZzw-167" value="" style="endArrow=classic;html=1;rounded=0;entryX=0.062;entryY=0.561;entryDx=0;entryDy=0;entryPerimeter=0;" edge="1" parent="1">
          <mxGeometry width="50" height="50" relative="1" as="geometry">
            <mxPoint x="310" y="1742" as="sourcePoint" />
            <mxPoint x="390.34000000000015" y="1741.7099999999998" as="targetPoint" />
            <Array as="points" />
          </mxGeometry>
        </mxCell>
        <mxCell id="kJkZv-Xm9j-CdwpZjZzw-168" value="" style="shape=or;whiteSpace=wrap;html=1;" vertex="1" parent="1">
          <mxGeometry x="385" y="1812" width="70" height="110" as="geometry" />
        </mxCell>
        <mxCell id="kJkZv-Xm9j-CdwpZjZzw-169" value="" style="endArrow=classic;html=1;rounded=0;entryX=0;entryY=0.25;entryDx=0;entryDy=0;entryPerimeter=0;" edge="1" parent="1" target="kJkZv-Xm9j-CdwpZjZzw-168">
          <mxGeometry width="50" height="50" relative="1" as="geometry">
            <mxPoint x="265" y="1840" as="sourcePoint" />
            <mxPoint x="285" y="1790" as="targetPoint" />
            <Array as="points">
              <mxPoint x="150" y="1840" />
            </Array>
          </mxGeometry>
        </mxCell>
        <mxCell id="kJkZv-Xm9j-CdwpZjZzw-170" value="" style="endArrow=classic;html=1;rounded=0;entryX=-0.033;entryY=0.452;entryDx=0;entryDy=0;entryPerimeter=0;" edge="1" parent="1">
          <mxGeometry width="50" height="50" relative="1" as="geometry">
            <mxPoint x="312.31" y="1860.28" as="sourcePoint" />
            <mxPoint x="385.00000000000006" y="1860.0000000000002" as="targetPoint" />
          </mxGeometry>
        </mxCell>
        <mxCell id="kJkZv-Xm9j-CdwpZjZzw-171" value="" style="endArrow=classic;html=1;rounded=0;" edge="1" parent="1">
          <mxGeometry width="50" height="50" relative="1" as="geometry">
            <mxPoint x="300" y="1881" as="sourcePoint" />
            <mxPoint x="385" y="1881" as="targetPoint" />
          </mxGeometry>
        </mxCell>
        <mxCell id="kJkZv-Xm9j-CdwpZjZzw-172" value="" style="shape=or;whiteSpace=wrap;html=1;" vertex="1" parent="1">
          <mxGeometry x="385" y="1932" width="70" height="100" as="geometry" />
        </mxCell>
        <mxCell id="kJkZv-Xm9j-CdwpZjZzw-173" value="" style="endArrow=classic;html=1;rounded=0;entryX=0.014;entryY=0.31;entryDx=0;entryDy=0;entryPerimeter=0;" edge="1" parent="1" target="kJkZv-Xm9j-CdwpZjZzw-172">
          <mxGeometry width="50" height="50" relative="1" as="geometry">
            <mxPoint x="160" y="1963" as="sourcePoint" />
            <mxPoint x="315" y="1912" as="targetPoint" />
          </mxGeometry>
        </mxCell>
        <mxCell id="kJkZv-Xm9j-CdwpZjZzw-174" value="" style="endArrow=classic;html=1;rounded=0;entryX=0;entryY=0.5;entryDx=0;entryDy=0;entryPerimeter=0;" edge="1" parent="1" target="kJkZv-Xm9j-CdwpZjZzw-172">
          <mxGeometry width="50" height="50" relative="1" as="geometry">
            <mxPoint x="180" y="1982" as="sourcePoint" />
            <mxPoint x="155" y="1932" as="targetPoint" />
          </mxGeometry>
        </mxCell>
        <mxCell id="kJkZv-Xm9j-CdwpZjZzw-175" value="" style="endArrow=classic;html=1;rounded=0;entryX=0.014;entryY=0.677;entryDx=0;entryDy=0;entryPerimeter=0;" edge="1" parent="1" target="kJkZv-Xm9j-CdwpZjZzw-172">
          <mxGeometry width="50" height="50" relative="1" as="geometry">
            <mxPoint x="150" y="2000" as="sourcePoint" />
            <mxPoint x="165" y="1952" as="targetPoint" />
          </mxGeometry>
        </mxCell>
        <mxCell id="kJkZv-Xm9j-CdwpZjZzw-176" value="" style="shape=or;whiteSpace=wrap;html=1;" vertex="1" parent="1">
          <mxGeometry x="380" y="2042" width="75" height="100" as="geometry" />
        </mxCell>
        <mxCell id="kJkZv-Xm9j-CdwpZjZzw-177" value="" style="endArrow=classic;html=1;rounded=0;entryX=0.024;entryY=0.168;entryDx=0;entryDy=0;entryPerimeter=0;" edge="1" parent="1" target="kJkZv-Xm9j-CdwpZjZzw-176">
          <mxGeometry width="50" height="50" relative="1" as="geometry">
            <mxPoint x="300" y="2059" as="sourcePoint" />
            <mxPoint x="295" y="2012" as="targetPoint" />
          </mxGeometry>
        </mxCell>
        <mxCell id="kJkZv-Xm9j-CdwpZjZzw-178" value="" style="endArrow=classic;html=1;rounded=0;entryX=0.067;entryY=0.6;entryDx=0;entryDy=0;entryPerimeter=0;" edge="1" parent="1">
          <mxGeometry width="50" height="50" relative="1" as="geometry">
            <mxPoint x="180" y="2080" as="sourcePoint" />
            <mxPoint x="385.0050000000001" y="2080" as="targetPoint" />
            <Array as="points">
              <mxPoint x="284.98" y="2080" />
            </Array>
          </mxGeometry>
        </mxCell>
        <mxCell id="kJkZv-Xm9j-CdwpZjZzw-179" value="" style="endArrow=classic;html=1;rounded=0;entryX=0;entryY=0.75;entryDx=0;entryDy=0;entryPerimeter=0;" edge="1" parent="1">
          <mxGeometry width="50" height="50" relative="1" as="geometry">
            <mxPoint x="130" y="2110" as="sourcePoint" />
            <mxPoint x="380" y="2110" as="targetPoint" />
            <Array as="points" />
          </mxGeometry>
        </mxCell>
        <mxCell id="kJkZv-Xm9j-CdwpZjZzw-180" value="" style="shape=xor;whiteSpace=wrap;html=1;" vertex="1" parent="1">
          <mxGeometry x="685" y="1800" width="110" height="180" as="geometry" />
        </mxCell>
        <mxCell id="kJkZv-Xm9j-CdwpZjZzw-181" value="" style="endArrow=classic;html=1;rounded=0;entryX=0.175;entryY=0.25;entryDx=0;entryDy=0;entryPerimeter=0;" edge="1" parent="1" target="kJkZv-Xm9j-CdwpZjZzw-180">
          <mxGeometry width="50" height="50" relative="1" as="geometry">
            <mxPoint x="455" y="1745" as="sourcePoint" />
            <mxPoint x="505" y="1695" as="targetPoint" />
          </mxGeometry>
        </mxCell>
        <mxCell id="kJkZv-Xm9j-CdwpZjZzw-182" value="" style="endArrow=classic;html=1;rounded=0;entryX=0.237;entryY=0.437;entryDx=0;entryDy=0;entryPerimeter=0;" edge="1" parent="1" target="kJkZv-Xm9j-CdwpZjZzw-180">
          <mxGeometry width="50" height="50" relative="1" as="geometry">
            <mxPoint x="455" y="1877" as="sourcePoint" />
            <mxPoint x="505" y="1827" as="targetPoint" />
          </mxGeometry>
        </mxCell>
        <mxCell id="kJkZv-Xm9j-CdwpZjZzw-183" value="" style="endArrow=classic;html=1;rounded=0;entryX=0.214;entryY=0.591;entryDx=0;entryDy=0;entryPerimeter=0;" edge="1" parent="1" target="kJkZv-Xm9j-CdwpZjZzw-180">
          <mxGeometry width="50" height="50" relative="1" as="geometry">
            <mxPoint x="455" y="1982" as="sourcePoint" />
            <mxPoint x="505" y="1932" as="targetPoint" />
          </mxGeometry>
        </mxCell>
        <mxCell id="kJkZv-Xm9j-CdwpZjZzw-184" value="" style="endArrow=classic;html=1;rounded=0;entryX=0.175;entryY=0.75;entryDx=0;entryDy=0;entryPerimeter=0;" edge="1" parent="1" target="kJkZv-Xm9j-CdwpZjZzw-180">
          <mxGeometry width="50" height="50" relative="1" as="geometry">
            <mxPoint x="455" y="2102" as="sourcePoint" />
            <mxPoint x="505" y="2052" as="targetPoint" />
          </mxGeometry>
        </mxCell>
        <mxCell id="kJkZv-Xm9j-CdwpZjZzw-185" value="" style="endArrow=classic;html=1;rounded=0;entryX=-0.006;entryY=0.679;entryDx=0;entryDy=0;entryPerimeter=0;" edge="1" parent="1" target="kJkZv-Xm9j-CdwpZjZzw-165">
          <mxGeometry width="50" height="50" relative="1" as="geometry">
            <mxPoint x="290" y="1765" as="sourcePoint" />
            <mxPoint x="175" y="1710" as="targetPoint" />
          </mxGeometry>
        </mxCell>
        <mxCell id="kJkZv-Xm9j-CdwpZjZzw-186" value="" style="endArrow=classic;html=1;rounded=0;entryX=0.014;entryY=0.824;entryDx=0;entryDy=0;entryPerimeter=0;" edge="1" parent="1" target="kJkZv-Xm9j-CdwpZjZzw-165">
          <mxGeometry width="50" height="50" relative="1" as="geometry">
            <mxPoint x="360" y="1781" as="sourcePoint" />
            <mxPoint x="145" y="1730" as="targetPoint" />
          </mxGeometry>
        </mxCell>
        <mxCell id="kJkZv-Xm9j-CdwpZjZzw-187" value="" style="endArrow=classic;html=1;rounded=0;entryX=-0.013;entryY=0.824;entryDx=0;entryDy=0;entryPerimeter=0;" edge="1" parent="1" target="kJkZv-Xm9j-CdwpZjZzw-168">
          <mxGeometry width="50" height="50" relative="1" as="geometry">
            <mxPoint x="360" y="1900" as="sourcePoint" />
            <mxPoint x="410" y="1850" as="targetPoint" />
          </mxGeometry>
        </mxCell>
        <mxCell id="kJkZv-Xm9j-CdwpZjZzw-188" value="" style="endArrow=classic;html=1;rounded=0;entryX=-0.028;entryY=0.856;entryDx=0;entryDy=0;entryPerimeter=0;" edge="1" parent="1" target="kJkZv-Xm9j-CdwpZjZzw-176">
          <mxGeometry width="50" height="50" relative="1" as="geometry">
            <mxPoint x="280" y="2128" as="sourcePoint" />
            <mxPoint x="340" y="2080" as="targetPoint" />
          </mxGeometry>
        </mxCell>
        <mxCell id="kJkZv-Xm9j-CdwpZjZzw-211" value="" style="shape=or;whiteSpace=wrap;html=1;" vertex="1" parent="1">
          <mxGeometry x="410" y="2150" width="70" height="110" as="geometry" />
        </mxCell>
        <mxCell id="kJkZv-Xm9j-CdwpZjZzw-212" value="" style="endArrow=classic;html=1;rounded=0;entryX=0.014;entryY=0.318;entryDx=0;entryDy=0;entryPerimeter=0;" edge="1" parent="1" target="kJkZv-Xm9j-CdwpZjZzw-211">
          <mxGeometry width="50" height="50" relative="1" as="geometry">
            <mxPoint x="160" y="2180" as="sourcePoint" />
            <mxPoint x="300" y="2181" as="targetPoint" />
          </mxGeometry>
        </mxCell>
        <mxCell id="kJkZv-Xm9j-CdwpZjZzw-213" value="" style="endArrow=classic;html=1;rounded=0;entryX=0.062;entryY=0.561;entryDx=0;entryDy=0;entryPerimeter=0;" edge="1" parent="1">
          <mxGeometry width="50" height="50" relative="1" as="geometry">
            <mxPoint x="350" y="2230" as="sourcePoint" />
            <mxPoint x="410.00000000000017" y="2230" as="targetPoint" />
            <Array as="points" />
          </mxGeometry>
        </mxCell>
        <mxCell id="kJkZv-Xm9j-CdwpZjZzw-214" value="" style="shape=or;whiteSpace=wrap;html=1;" vertex="1" parent="1">
          <mxGeometry x="410" y="2272" width="70" height="110" as="geometry" />
        </mxCell>
        <mxCell id="kJkZv-Xm9j-CdwpZjZzw-215" value="" style="endArrow=classic;html=1;rounded=0;entryX=0;entryY=0.25;entryDx=0;entryDy=0;entryPerimeter=0;" edge="1" parent="1" target="kJkZv-Xm9j-CdwpZjZzw-214">
          <mxGeometry width="50" height="50" relative="1" as="geometry">
            <mxPoint x="150" y="2300" as="sourcePoint" />
            <mxPoint x="310" y="2250" as="targetPoint" />
          </mxGeometry>
        </mxCell>
        <mxCell id="kJkZv-Xm9j-CdwpZjZzw-216" value="" style="endArrow=classic;html=1;rounded=0;entryX=-0.033;entryY=0.452;entryDx=0;entryDy=0;entryPerimeter=0;" edge="1" parent="1" target="kJkZv-Xm9j-CdwpZjZzw-214">
          <mxGeometry width="50" height="50" relative="1" as="geometry">
            <mxPoint x="350" y="2322" as="sourcePoint" />
            <mxPoint x="340" y="2272" as="targetPoint" />
          </mxGeometry>
        </mxCell>
        <mxCell id="kJkZv-Xm9j-CdwpZjZzw-217" value="" style="endArrow=classic;html=1;rounded=0;" edge="1" parent="1">
          <mxGeometry width="50" height="50" relative="1" as="geometry">
            <mxPoint x="310" y="2340" as="sourcePoint" />
            <mxPoint x="410" y="2341" as="targetPoint" />
          </mxGeometry>
        </mxCell>
        <mxCell id="kJkZv-Xm9j-CdwpZjZzw-218" value="" style="shape=or;whiteSpace=wrap;html=1;" vertex="1" parent="1">
          <mxGeometry x="410" y="2392" width="70" height="100" as="geometry" />
        </mxCell>
        <mxCell id="kJkZv-Xm9j-CdwpZjZzw-219" value="" style="endArrow=classic;html=1;rounded=0;entryX=0.014;entryY=0.31;entryDx=0;entryDy=0;entryPerimeter=0;" edge="1" parent="1" target="kJkZv-Xm9j-CdwpZjZzw-218">
          <mxGeometry width="50" height="50" relative="1" as="geometry">
            <mxPoint x="160" y="2420" as="sourcePoint" />
            <mxPoint x="340" y="2372" as="targetPoint" />
          </mxGeometry>
        </mxCell>
        <mxCell id="kJkZv-Xm9j-CdwpZjZzw-220" value="" style="endArrow=classic;html=1;rounded=0;entryX=0;entryY=0.5;entryDx=0;entryDy=0;entryPerimeter=0;" edge="1" parent="1" target="kJkZv-Xm9j-CdwpZjZzw-218">
          <mxGeometry width="50" height="50" relative="1" as="geometry">
            <mxPoint x="310" y="2442" as="sourcePoint" />
            <mxPoint x="180" y="2392" as="targetPoint" />
          </mxGeometry>
        </mxCell>
        <mxCell id="kJkZv-Xm9j-CdwpZjZzw-221" value="" style="endArrow=classic;html=1;rounded=0;entryX=0.014;entryY=0.677;entryDx=0;entryDy=0;entryPerimeter=0;" edge="1" parent="1" target="kJkZv-Xm9j-CdwpZjZzw-218">
          <mxGeometry width="50" height="50" relative="1" as="geometry">
            <mxPoint x="280" y="2460" as="sourcePoint" />
            <mxPoint x="190" y="2412" as="targetPoint" />
          </mxGeometry>
        </mxCell>
        <mxCell id="kJkZv-Xm9j-CdwpZjZzw-226" value="" style="shape=xor;whiteSpace=wrap;html=1;" vertex="1" parent="1">
          <mxGeometry x="710" y="2260" width="110" height="180" as="geometry" />
        </mxCell>
        <mxCell id="kJkZv-Xm9j-CdwpZjZzw-227" value="" style="endArrow=classic;html=1;rounded=0;entryX=0.175;entryY=0.25;entryDx=0;entryDy=0;entryPerimeter=0;" edge="1" parent="1" target="kJkZv-Xm9j-CdwpZjZzw-226">
          <mxGeometry width="50" height="50" relative="1" as="geometry">
            <mxPoint x="480" y="2205" as="sourcePoint" />
            <mxPoint x="530" y="2155" as="targetPoint" />
          </mxGeometry>
        </mxCell>
        <mxCell id="kJkZv-Xm9j-CdwpZjZzw-228" value="" style="endArrow=classic;html=1;rounded=0;entryX=0.237;entryY=0.437;entryDx=0;entryDy=0;entryPerimeter=0;" edge="1" parent="1" target="kJkZv-Xm9j-CdwpZjZzw-226">
          <mxGeometry width="50" height="50" relative="1" as="geometry">
            <mxPoint x="480" y="2337" as="sourcePoint" />
            <mxPoint x="530" y="2287" as="targetPoint" />
          </mxGeometry>
        </mxCell>
        <mxCell id="kJkZv-Xm9j-CdwpZjZzw-229" value="" style="endArrow=classic;html=1;rounded=0;entryX=0.214;entryY=0.591;entryDx=0;entryDy=0;entryPerimeter=0;" edge="1" parent="1" target="kJkZv-Xm9j-CdwpZjZzw-226">
          <mxGeometry width="50" height="50" relative="1" as="geometry">
            <mxPoint x="480" y="2442" as="sourcePoint" />
            <mxPoint x="530" y="2392" as="targetPoint" />
          </mxGeometry>
        </mxCell>
        <mxCell id="kJkZv-Xm9j-CdwpZjZzw-233" value="" style="shape=or;whiteSpace=wrap;html=1;" vertex="1" parent="1">
          <mxGeometry x="410" y="2510" width="70" height="110" as="geometry" />
        </mxCell>
        <mxCell id="kJkZv-Xm9j-CdwpZjZzw-234" value="" style="endArrow=classic;html=1;rounded=0;entryX=0.014;entryY=0.318;entryDx=0;entryDy=0;entryPerimeter=0;" edge="1" parent="1" target="kJkZv-Xm9j-CdwpZjZzw-233">
          <mxGeometry width="50" height="50" relative="1" as="geometry">
            <mxPoint x="310" y="2540" as="sourcePoint" />
            <mxPoint x="300" y="2541" as="targetPoint" />
          </mxGeometry>
        </mxCell>
        <mxCell id="kJkZv-Xm9j-CdwpZjZzw-236" value="" style="shape=or;whiteSpace=wrap;html=1;" vertex="1" parent="1">
          <mxGeometry x="410" y="2632" width="70" height="110" as="geometry" />
        </mxCell>
        <mxCell id="kJkZv-Xm9j-CdwpZjZzw-237" value="" style="endArrow=classic;html=1;rounded=0;entryX=0;entryY=0.25;entryDx=0;entryDy=0;entryPerimeter=0;" edge="1" parent="1" target="kJkZv-Xm9j-CdwpZjZzw-236">
          <mxGeometry width="50" height="50" relative="1" as="geometry">
            <mxPoint x="160" y="2660" as="sourcePoint" />
            <mxPoint x="310" y="2610" as="targetPoint" />
          </mxGeometry>
        </mxCell>
        <mxCell id="kJkZv-Xm9j-CdwpZjZzw-238" value="" style="endArrow=classic;html=1;rounded=0;entryX=-0.033;entryY=0.452;entryDx=0;entryDy=0;entryPerimeter=0;" edge="1" parent="1" target="kJkZv-Xm9j-CdwpZjZzw-236">
          <mxGeometry width="50" height="50" relative="1" as="geometry">
            <mxPoint x="350" y="2682" as="sourcePoint" />
            <mxPoint x="340" y="2632" as="targetPoint" />
          </mxGeometry>
        </mxCell>
        <mxCell id="kJkZv-Xm9j-CdwpZjZzw-239" value="" style="endArrow=classic;html=1;rounded=0;" edge="1" parent="1">
          <mxGeometry width="50" height="50" relative="1" as="geometry">
            <mxPoint x="300" y="2701" as="sourcePoint" />
            <mxPoint x="410" y="2701" as="targetPoint" />
          </mxGeometry>
        </mxCell>
        <mxCell id="kJkZv-Xm9j-CdwpZjZzw-240" value="" style="shape=or;whiteSpace=wrap;html=1;" vertex="1" parent="1">
          <mxGeometry x="410" y="2752" width="70" height="100" as="geometry" />
        </mxCell>
        <mxCell id="kJkZv-Xm9j-CdwpZjZzw-241" value="" style="endArrow=classic;html=1;rounded=0;entryX=0.014;entryY=0.31;entryDx=0;entryDy=0;entryPerimeter=0;" edge="1" parent="1" target="kJkZv-Xm9j-CdwpZjZzw-240">
          <mxGeometry width="50" height="50" relative="1" as="geometry">
            <mxPoint x="160" y="2783" as="sourcePoint" />
            <mxPoint x="340" y="2732" as="targetPoint" />
          </mxGeometry>
        </mxCell>
        <mxCell id="kJkZv-Xm9j-CdwpZjZzw-242" value="" style="endArrow=classic;html=1;rounded=0;entryX=0;entryY=0.5;entryDx=0;entryDy=0;entryPerimeter=0;" edge="1" parent="1" target="kJkZv-Xm9j-CdwpZjZzw-240">
          <mxGeometry width="50" height="50" relative="1" as="geometry">
            <mxPoint x="180" y="2802" as="sourcePoint" />
            <mxPoint x="180" y="2752" as="targetPoint" />
          </mxGeometry>
        </mxCell>
        <mxCell id="kJkZv-Xm9j-CdwpZjZzw-243" value="" style="endArrow=classic;html=1;rounded=0;entryX=0.014;entryY=0.677;entryDx=0;entryDy=0;entryPerimeter=0;" edge="1" parent="1" target="kJkZv-Xm9j-CdwpZjZzw-240">
          <mxGeometry width="50" height="50" relative="1" as="geometry">
            <mxPoint x="350" y="2820" as="sourcePoint" />
            <mxPoint x="190" y="2772" as="targetPoint" />
            <Array as="points" />
          </mxGeometry>
        </mxCell>
        <mxCell id="kJkZv-Xm9j-CdwpZjZzw-244" value="" style="shape=or;whiteSpace=wrap;html=1;" vertex="1" parent="1">
          <mxGeometry x="405" y="2862" width="75" height="100" as="geometry" />
        </mxCell>
        <mxCell id="kJkZv-Xm9j-CdwpZjZzw-245" value="" style="endArrow=classic;html=1;rounded=0;entryX=0.024;entryY=0.168;entryDx=0;entryDy=0;entryPerimeter=0;" edge="1" parent="1" target="kJkZv-Xm9j-CdwpZjZzw-244">
          <mxGeometry width="50" height="50" relative="1" as="geometry">
            <mxPoint x="180" y="2880" as="sourcePoint" />
            <mxPoint x="320" y="2832" as="targetPoint" />
          </mxGeometry>
        </mxCell>
        <mxCell id="kJkZv-Xm9j-CdwpZjZzw-246" value="" style="endArrow=classic;html=1;rounded=0;entryX=0.067;entryY=0.6;entryDx=0;entryDy=0;entryPerimeter=0;" edge="1" parent="1">
          <mxGeometry width="50" height="50" relative="1" as="geometry">
            <mxPoint x="350" y="2900" as="sourcePoint" />
            <mxPoint x="410.0050000000001" y="2900" as="targetPoint" />
            <Array as="points" />
          </mxGeometry>
        </mxCell>
        <mxCell id="kJkZv-Xm9j-CdwpZjZzw-247" value="" style="endArrow=classic;html=1;rounded=0;entryX=0;entryY=0.75;entryDx=0;entryDy=0;entryPerimeter=0;" edge="1" parent="1">
          <mxGeometry width="50" height="50" relative="1" as="geometry">
            <mxPoint x="300" y="2930" as="sourcePoint" />
            <mxPoint x="405" y="2930" as="targetPoint" />
            <Array as="points" />
          </mxGeometry>
        </mxCell>
        <mxCell id="kJkZv-Xm9j-CdwpZjZzw-248" value="" style="shape=xor;whiteSpace=wrap;html=1;" vertex="1" parent="1">
          <mxGeometry x="710" y="2620" width="110" height="180" as="geometry" />
        </mxCell>
        <mxCell id="kJkZv-Xm9j-CdwpZjZzw-249" value="" style="endArrow=classic;html=1;rounded=0;entryX=0.175;entryY=0.25;entryDx=0;entryDy=0;entryPerimeter=0;" edge="1" parent="1" target="kJkZv-Xm9j-CdwpZjZzw-248">
          <mxGeometry width="50" height="50" relative="1" as="geometry">
            <mxPoint x="480" y="2565" as="sourcePoint" />
            <mxPoint x="530" y="2515" as="targetPoint" />
          </mxGeometry>
        </mxCell>
        <mxCell id="kJkZv-Xm9j-CdwpZjZzw-250" value="" style="endArrow=classic;html=1;rounded=0;entryX=0.237;entryY=0.437;entryDx=0;entryDy=0;entryPerimeter=0;" edge="1" parent="1" target="kJkZv-Xm9j-CdwpZjZzw-248">
          <mxGeometry width="50" height="50" relative="1" as="geometry">
            <mxPoint x="480" y="2697" as="sourcePoint" />
            <mxPoint x="530" y="2647" as="targetPoint" />
          </mxGeometry>
        </mxCell>
        <mxCell id="kJkZv-Xm9j-CdwpZjZzw-251" value="" style="endArrow=classic;html=1;rounded=0;entryX=0.214;entryY=0.591;entryDx=0;entryDy=0;entryPerimeter=0;" edge="1" parent="1" target="kJkZv-Xm9j-CdwpZjZzw-248">
          <mxGeometry width="50" height="50" relative="1" as="geometry">
            <mxPoint x="480" y="2802" as="sourcePoint" />
            <mxPoint x="530" y="2752" as="targetPoint" />
          </mxGeometry>
        </mxCell>
        <mxCell id="kJkZv-Xm9j-CdwpZjZzw-252" value="" style="endArrow=classic;html=1;rounded=0;entryX=0.175;entryY=0.75;entryDx=0;entryDy=0;entryPerimeter=0;" edge="1" parent="1" target="kJkZv-Xm9j-CdwpZjZzw-248">
          <mxGeometry width="50" height="50" relative="1" as="geometry">
            <mxPoint x="480" y="2922" as="sourcePoint" />
            <mxPoint x="530" y="2872" as="targetPoint" />
          </mxGeometry>
        </mxCell>
        <mxCell id="kJkZv-Xm9j-CdwpZjZzw-253" value="" style="endArrow=classic;html=1;rounded=0;entryX=-0.006;entryY=0.679;entryDx=0;entryDy=0;entryPerimeter=0;" edge="1" parent="1" target="kJkZv-Xm9j-CdwpZjZzw-233">
          <mxGeometry width="50" height="50" relative="1" as="geometry">
            <mxPoint x="150" y="2580" as="sourcePoint" />
            <mxPoint x="200" y="2530" as="targetPoint" />
          </mxGeometry>
        </mxCell>
        <mxCell id="kJkZv-Xm9j-CdwpZjZzw-254" value="" style="endArrow=classic;html=1;rounded=0;entryX=0.014;entryY=0.824;entryDx=0;entryDy=0;entryPerimeter=0;" edge="1" parent="1" target="kJkZv-Xm9j-CdwpZjZzw-233">
          <mxGeometry width="50" height="50" relative="1" as="geometry">
            <mxPoint x="130" y="2590" as="sourcePoint" />
            <mxPoint x="170" y="2550" as="targetPoint" />
          </mxGeometry>
        </mxCell>
        <mxCell id="kJkZv-Xm9j-CdwpZjZzw-255" value="" style="endArrow=classic;html=1;rounded=0;entryX=0;entryY=0.5;entryDx=0;entryDy=0;entryPerimeter=0;" edge="1" parent="1" target="kJkZv-Xm9j-CdwpZjZzw-233">
          <mxGeometry width="50" height="50" relative="1" as="geometry">
            <mxPoint x="160" y="2560" as="sourcePoint" />
            <mxPoint x="210" y="2510" as="targetPoint" />
          </mxGeometry>
        </mxCell>
        <mxCell id="kJkZv-Xm9j-CdwpZjZzw-256" value="" style="shape=or;whiteSpace=wrap;html=1;" vertex="1" parent="1">
          <mxGeometry x="410" y="2990" width="70" height="110" as="geometry" />
        </mxCell>
        <mxCell id="kJkZv-Xm9j-CdwpZjZzw-257" value="" style="endArrow=classic;html=1;rounded=0;entryX=0.014;entryY=0.318;entryDx=0;entryDy=0;entryPerimeter=0;" edge="1" parent="1" target="kJkZv-Xm9j-CdwpZjZzw-256">
          <mxGeometry width="50" height="50" relative="1" as="geometry">
            <mxPoint x="350" y="3025" as="sourcePoint" />
            <mxPoint x="300" y="3021" as="targetPoint" />
          </mxGeometry>
        </mxCell>
        <mxCell id="kJkZv-Xm9j-CdwpZjZzw-258" value="" style="endArrow=classic;html=1;rounded=0;entryX=0.062;entryY=0.561;entryDx=0;entryDy=0;entryPerimeter=0;" edge="1" parent="1">
          <mxGeometry width="50" height="50" relative="1" as="geometry">
            <mxPoint x="280" y="3040" as="sourcePoint" />
            <mxPoint x="415.34000000000015" y="3041.71" as="targetPoint" />
            <Array as="points">
              <mxPoint x="280" y="3042" />
            </Array>
          </mxGeometry>
        </mxCell>
        <mxCell id="kJkZv-Xm9j-CdwpZjZzw-259" value="" style="shape=or;whiteSpace=wrap;html=1;" vertex="1" parent="1">
          <mxGeometry x="410" y="3112" width="70" height="110" as="geometry" />
        </mxCell>
        <mxCell id="kJkZv-Xm9j-CdwpZjZzw-260" value="" style="endArrow=classic;html=1;rounded=0;entryX=0;entryY=0.25;entryDx=0;entryDy=0;entryPerimeter=0;" edge="1" parent="1" target="kJkZv-Xm9j-CdwpZjZzw-259">
          <mxGeometry width="50" height="50" relative="1" as="geometry">
            <mxPoint x="350" y="3140" as="sourcePoint" />
            <mxPoint x="310" y="3090" as="targetPoint" />
          </mxGeometry>
        </mxCell>
        <mxCell id="kJkZv-Xm9j-CdwpZjZzw-261" value="" style="endArrow=classic;html=1;rounded=0;entryX=-0.033;entryY=0.452;entryDx=0;entryDy=0;entryPerimeter=0;" edge="1" parent="1" target="kJkZv-Xm9j-CdwpZjZzw-259">
          <mxGeometry width="50" height="50" relative="1" as="geometry">
            <mxPoint x="150" y="3162" as="sourcePoint" />
            <mxPoint x="340" y="3112" as="targetPoint" />
          </mxGeometry>
        </mxCell>
        <mxCell id="kJkZv-Xm9j-CdwpZjZzw-262" value="" style="endArrow=classic;html=1;rounded=0;" edge="1" parent="1">
          <mxGeometry width="50" height="50" relative="1" as="geometry">
            <mxPoint x="160" y="3181" as="sourcePoint" />
            <mxPoint x="410" y="3181" as="targetPoint" />
          </mxGeometry>
        </mxCell>
        <mxCell id="kJkZv-Xm9j-CdwpZjZzw-263" value="" style="shape=or;whiteSpace=wrap;html=1;" vertex="1" parent="1">
          <mxGeometry x="410" y="3232" width="70" height="100" as="geometry" />
        </mxCell>
        <mxCell id="kJkZv-Xm9j-CdwpZjZzw-264" value="" style="endArrow=classic;html=1;rounded=0;entryX=0.014;entryY=0.31;entryDx=0;entryDy=0;entryPerimeter=0;" edge="1" parent="1" target="kJkZv-Xm9j-CdwpZjZzw-263">
          <mxGeometry width="50" height="50" relative="1" as="geometry">
            <mxPoint x="310" y="3260" as="sourcePoint" />
            <mxPoint x="340" y="3212" as="targetPoint" />
          </mxGeometry>
        </mxCell>
        <mxCell id="kJkZv-Xm9j-CdwpZjZzw-265" value="" style="endArrow=classic;html=1;rounded=0;entryX=0;entryY=0.5;entryDx=0;entryDy=0;entryPerimeter=0;" edge="1" parent="1" target="kJkZv-Xm9j-CdwpZjZzw-263">
          <mxGeometry width="50" height="50" relative="1" as="geometry">
            <mxPoint x="300" y="3282" as="sourcePoint" />
            <mxPoint x="180" y="3232" as="targetPoint" />
          </mxGeometry>
        </mxCell>
        <mxCell id="kJkZv-Xm9j-CdwpZjZzw-266" value="" style="endArrow=classic;html=1;rounded=0;entryX=0.014;entryY=0.677;entryDx=0;entryDy=0;entryPerimeter=0;" edge="1" parent="1" target="kJkZv-Xm9j-CdwpZjZzw-263">
          <mxGeometry width="50" height="50" relative="1" as="geometry">
            <mxPoint x="130" y="3300" as="sourcePoint" />
            <mxPoint x="190" y="3252" as="targetPoint" />
          </mxGeometry>
        </mxCell>
        <mxCell id="kJkZv-Xm9j-CdwpZjZzw-271" value="" style="shape=xor;whiteSpace=wrap;html=1;" vertex="1" parent="1">
          <mxGeometry x="710" y="3100" width="110" height="180" as="geometry" />
        </mxCell>
        <mxCell id="kJkZv-Xm9j-CdwpZjZzw-272" value="" style="endArrow=classic;html=1;rounded=0;entryX=0.175;entryY=0.25;entryDx=0;entryDy=0;entryPerimeter=0;" edge="1" parent="1" target="kJkZv-Xm9j-CdwpZjZzw-271">
          <mxGeometry width="50" height="50" relative="1" as="geometry">
            <mxPoint x="480" y="3045" as="sourcePoint" />
            <mxPoint x="530" y="2995" as="targetPoint" />
          </mxGeometry>
        </mxCell>
        <mxCell id="kJkZv-Xm9j-CdwpZjZzw-273" value="" style="endArrow=classic;html=1;rounded=0;entryX=0.237;entryY=0.437;entryDx=0;entryDy=0;entryPerimeter=0;" edge="1" parent="1" target="kJkZv-Xm9j-CdwpZjZzw-271">
          <mxGeometry width="50" height="50" relative="1" as="geometry">
            <mxPoint x="480" y="3177" as="sourcePoint" />
            <mxPoint x="530" y="3127" as="targetPoint" />
          </mxGeometry>
        </mxCell>
        <mxCell id="kJkZv-Xm9j-CdwpZjZzw-274" value="" style="endArrow=classic;html=1;rounded=0;entryX=0.214;entryY=0.591;entryDx=0;entryDy=0;entryPerimeter=0;" edge="1" parent="1" target="kJkZv-Xm9j-CdwpZjZzw-271">
          <mxGeometry width="50" height="50" relative="1" as="geometry">
            <mxPoint x="480" y="3282" as="sourcePoint" />
            <mxPoint x="530" y="3232" as="targetPoint" />
          </mxGeometry>
        </mxCell>
        <mxCell id="kJkZv-Xm9j-CdwpZjZzw-276" value="" style="endArrow=classic;html=1;rounded=0;entryX=-0.006;entryY=0.679;entryDx=0;entryDy=0;entryPerimeter=0;" edge="1" parent="1" target="kJkZv-Xm9j-CdwpZjZzw-256">
          <mxGeometry width="50" height="50" relative="1" as="geometry">
            <mxPoint x="310" y="3065" as="sourcePoint" />
            <mxPoint x="200" y="3010" as="targetPoint" />
          </mxGeometry>
        </mxCell>
        <mxCell id="kJkZv-Xm9j-CdwpZjZzw-278" value="" style="endArrow=classic;html=1;rounded=0;entryX=-0.029;entryY=0.844;entryDx=0;entryDy=0;entryPerimeter=0;" edge="1" parent="1" target="kJkZv-Xm9j-CdwpZjZzw-259">
          <mxGeometry width="50" height="50" relative="1" as="geometry">
            <mxPoint x="180" y="3200" as="sourcePoint" />
            <mxPoint x="230" y="3150" as="targetPoint" />
          </mxGeometry>
        </mxCell>
        <mxCell id="kJkZv-Xm9j-CdwpZjZzw-279" value="" style="endArrow=classic;html=1;rounded=0;entryX=-0.051;entryY=0.853;entryDx=0;entryDy=0;entryPerimeter=0;" edge="1" parent="1" target="kJkZv-Xm9j-CdwpZjZzw-263">
          <mxGeometry width="50" height="50" relative="1" as="geometry">
            <mxPoint x="150" y="3310" as="sourcePoint" />
            <mxPoint x="200" y="3260" as="targetPoint" />
          </mxGeometry>
        </mxCell>
        <mxCell id="kJkZv-Xm9j-CdwpZjZzw-280" value="" style="endArrow=classic;html=1;rounded=0;" edge="1" parent="1">
          <mxGeometry width="50" height="50" relative="1" as="geometry">
            <mxPoint x="-100" y="3400" as="sourcePoint" />
            <mxPoint y="3400" as="targetPoint" />
          </mxGeometry>
        </mxCell>
        <mxCell id="kJkZv-Xm9j-CdwpZjZzw-281" value="" style="endArrow=classic;html=1;rounded=0;" edge="1" parent="1">
          <mxGeometry width="50" height="50" relative="1" as="geometry">
            <mxPoint x="-100" y="3440" as="sourcePoint" />
            <mxPoint y="3440" as="targetPoint" />
          </mxGeometry>
        </mxCell>
        <mxCell id="kJkZv-Xm9j-CdwpZjZzw-282" value="" style="endArrow=classic;html=1;rounded=0;" edge="1" parent="1">
          <mxGeometry width="50" height="50" relative="1" as="geometry">
            <mxPoint x="-100" y="3480" as="sourcePoint" />
            <mxPoint y="3480" as="targetPoint" />
          </mxGeometry>
        </mxCell>
        <mxCell id="kJkZv-Xm9j-CdwpZjZzw-283" value="sel[0]" style="text;html=1;align=center;verticalAlign=middle;resizable=0;points=[];autosize=1;strokeColor=none;fillColor=none;" vertex="1" parent="1">
          <mxGeometry x="-105" y="3368" width="50" height="30" as="geometry" />
        </mxCell>
        <mxCell id="kJkZv-Xm9j-CdwpZjZzw-284" value="sel[1]" style="text;html=1;align=center;verticalAlign=middle;resizable=0;points=[];autosize=1;strokeColor=none;fillColor=none;" vertex="1" parent="1">
          <mxGeometry x="-125" y="3418" width="50" height="30" as="geometry" />
        </mxCell>
        <mxCell id="kJkZv-Xm9j-CdwpZjZzw-285" value="sel[2]" style="text;html=1;align=center;verticalAlign=middle;resizable=0;points=[];autosize=1;strokeColor=none;fillColor=none;" vertex="1" parent="1">
          <mxGeometry x="-105" y="3458" width="50" height="30" as="geometry" />
        </mxCell>
        <mxCell id="kJkZv-Xm9j-CdwpZjZzw-286" value="" style="shape=or;whiteSpace=wrap;html=1;" vertex="1" parent="1">
          <mxGeometry x="160" y="3393" width="60" height="97" as="geometry" />
        </mxCell>
        <mxCell id="kJkZv-Xm9j-CdwpZjZzw-287" value="" style="endArrow=classic;html=1;rounded=0;entryX=-0.033;entryY=0.112;entryDx=0;entryDy=0;entryPerimeter=0;" edge="1" parent="1" target="kJkZv-Xm9j-CdwpZjZzw-286">
          <mxGeometry width="50" height="50" relative="1" as="geometry">
            <mxPoint y="3400" as="sourcePoint" />
            <mxPoint x="50" y="3348" as="targetPoint" />
          </mxGeometry>
        </mxCell>
        <mxCell id="kJkZv-Xm9j-CdwpZjZzw-288" value="" style="endArrow=classic;html=1;rounded=0;" edge="1" parent="1">
          <mxGeometry width="50" height="50" relative="1" as="geometry">
            <mxPoint y="3440" as="sourcePoint" />
            <mxPoint x="160" y="3440" as="targetPoint" />
          </mxGeometry>
        </mxCell>
        <mxCell id="kJkZv-Xm9j-CdwpZjZzw-289" value="" style="endArrow=classic;html=1;rounded=0;" edge="1" parent="1">
          <mxGeometry width="50" height="50" relative="1" as="geometry">
            <mxPoint x="-9" y="3480" as="sourcePoint" />
            <mxPoint x="160" y="3480" as="targetPoint" />
          </mxGeometry>
        </mxCell>
        <mxCell id="kJkZv-Xm9j-CdwpZjZzw-290" value="" style="triangle;whiteSpace=wrap;html=1;" vertex="1" parent="1">
          <mxGeometry x="80" y="3540" width="50" height="30" as="geometry" />
        </mxCell>
        <mxCell id="kJkZv-Xm9j-CdwpZjZzw-291" value="" style="ellipse;whiteSpace=wrap;html=1;aspect=fixed;" vertex="1" parent="1">
          <mxGeometry x="130" y="3545" width="20" height="20" as="geometry" />
        </mxCell>
        <mxCell id="kJkZv-Xm9j-CdwpZjZzw-292" value="" style="triangle;whiteSpace=wrap;html=1;" vertex="1" parent="1">
          <mxGeometry x="80" y="3580" width="50" height="30" as="geometry" />
        </mxCell>
        <mxCell id="kJkZv-Xm9j-CdwpZjZzw-293" value="" style="ellipse;whiteSpace=wrap;html=1;aspect=fixed;" vertex="1" parent="1">
          <mxGeometry x="130" y="3585" width="20" height="20" as="geometry" />
        </mxCell>
        <mxCell id="kJkZv-Xm9j-CdwpZjZzw-294" value="" style="endArrow=none;html=1;rounded=0;" edge="1" parent="1">
          <mxGeometry width="50" height="50" relative="1" as="geometry">
            <mxPoint x="30" y="3560" as="sourcePoint" />
            <mxPoint x="30" y="3440" as="targetPoint" />
          </mxGeometry>
        </mxCell>
        <mxCell id="kJkZv-Xm9j-CdwpZjZzw-295" value="" style="endArrow=none;html=1;rounded=0;" edge="1" parent="1">
          <mxGeometry width="50" height="50" relative="1" as="geometry">
            <mxPoint x="50" y="4340" as="sourcePoint" />
            <mxPoint x="50" y="3480" as="targetPoint" />
          </mxGeometry>
        </mxCell>
        <mxCell id="kJkZv-Xm9j-CdwpZjZzw-296" value="" style="endArrow=classic;html=1;rounded=0;entryX=0;entryY=0.5;entryDx=0;entryDy=0;" edge="1" parent="1" target="kJkZv-Xm9j-CdwpZjZzw-290">
          <mxGeometry width="50" height="50" relative="1" as="geometry">
            <mxPoint x="30" y="3555" as="sourcePoint" />
            <mxPoint x="80" y="3510" as="targetPoint" />
            <Array as="points" />
          </mxGeometry>
        </mxCell>
        <mxCell id="kJkZv-Xm9j-CdwpZjZzw-298" value="" style="endArrow=classic;html=1;rounded=0;entryX=0;entryY=0.5;entryDx=0;entryDy=0;" edge="1" parent="1" target="kJkZv-Xm9j-CdwpZjZzw-292">
          <mxGeometry width="50" height="50" relative="1" as="geometry">
            <mxPoint x="50" y="3595" as="sourcePoint" />
            <mxPoint x="100" y="3545" as="targetPoint" />
          </mxGeometry>
        </mxCell>
        <mxCell id="kJkZv-Xm9j-CdwpZjZzw-299" value="" style="shape=or;whiteSpace=wrap;html=1;" vertex="1" parent="1">
          <mxGeometry x="210" y="3510" width="70" height="115" as="geometry" />
        </mxCell>
        <mxCell id="kJkZv-Xm9j-CdwpZjZzw-300" value="" style="endArrow=classic;html=1;rounded=0;entryX=0;entryY=0.368;entryDx=0;entryDy=0;entryPerimeter=0;exitX=1;exitY=0.5;exitDx=0;exitDy=0;" edge="1" parent="1" source="kJkZv-Xm9j-CdwpZjZzw-291" target="kJkZv-Xm9j-CdwpZjZzw-299">
          <mxGeometry width="50" height="50" relative="1" as="geometry">
            <mxPoint x="150" y="3560" as="sourcePoint" />
            <mxPoint x="200" y="3510" as="targetPoint" />
          </mxGeometry>
        </mxCell>
        <mxCell id="kJkZv-Xm9j-CdwpZjZzw-301" value="" style="endArrow=classic;html=1;rounded=0;entryX=0;entryY=0.368;entryDx=0;entryDy=0;entryPerimeter=0;exitX=1;exitY=0.5;exitDx=0;exitDy=0;" edge="1" parent="1" source="kJkZv-Xm9j-CdwpZjZzw-293">
          <mxGeometry width="50" height="50" relative="1" as="geometry">
            <mxPoint x="150" y="3593" as="sourcePoint" />
            <mxPoint x="210" y="3597.5" as="targetPoint" />
          </mxGeometry>
        </mxCell>
        <mxCell id="kJkZv-Xm9j-CdwpZjZzw-302" value="" style="endArrow=none;html=1;rounded=0;" edge="1" parent="1">
          <mxGeometry width="50" height="50" relative="1" as="geometry">
            <mxPoint x="20" y="4400" as="sourcePoint" />
            <mxPoint x="20" y="3398" as="targetPoint" />
          </mxGeometry>
        </mxCell>
        <mxCell id="kJkZv-Xm9j-CdwpZjZzw-303" value="" style="endArrow=classic;html=1;rounded=0;entryX=-0.014;entryY=0.148;entryDx=0;entryDy=0;entryPerimeter=0;" edge="1" parent="1" target="kJkZv-Xm9j-CdwpZjZzw-299">
          <mxGeometry width="50" height="50" relative="1" as="geometry">
            <mxPoint x="20" y="3530" as="sourcePoint" />
            <mxPoint x="70" y="3480" as="targetPoint" />
          </mxGeometry>
        </mxCell>
        <mxCell id="kJkZv-Xm9j-CdwpZjZzw-305" value="" style="ellipse;whiteSpace=wrap;html=1;aspect=fixed;" vertex="1" parent="1">
          <mxGeometry x="280" y="3557.5" width="20" height="20" as="geometry" />
        </mxCell>
        <mxCell id="kJkZv-Xm9j-CdwpZjZzw-306" value="" style="shape=or;whiteSpace=wrap;html=1;" vertex="1" parent="1">
          <mxGeometry x="200" y="3650" width="70" height="115" as="geometry" />
        </mxCell>
        <mxCell id="kJkZv-Xm9j-CdwpZjZzw-307" value="" style="endArrow=classic;html=1;rounded=0;entryX=0;entryY=0.368;entryDx=0;entryDy=0;entryPerimeter=0;" edge="1" parent="1" target="kJkZv-Xm9j-CdwpZjZzw-306">
          <mxGeometry width="50" height="50" relative="1" as="geometry">
            <mxPoint x="160" y="3690" as="sourcePoint" />
            <mxPoint x="190" y="3650" as="targetPoint" />
          </mxGeometry>
        </mxCell>
        <mxCell id="kJkZv-Xm9j-CdwpZjZzw-308" value="" style="endArrow=classic;html=1;rounded=0;entryX=0;entryY=0.368;entryDx=0;entryDy=0;entryPerimeter=0;" edge="1" parent="1">
          <mxGeometry width="50" height="50" relative="1" as="geometry">
            <mxPoint x="10" y="3730" as="sourcePoint" />
            <mxPoint x="200" y="3730" as="targetPoint" />
          </mxGeometry>
        </mxCell>
        <mxCell id="kJkZv-Xm9j-CdwpZjZzw-309" value="" style="ellipse;whiteSpace=wrap;html=1;aspect=fixed;" vertex="1" parent="1">
          <mxGeometry x="270" y="3697.5" width="20" height="20" as="geometry" />
        </mxCell>
        <mxCell id="kJkZv-Xm9j-CdwpZjZzw-310" value="" style="endArrow=none;html=1;rounded=0;" edge="1" parent="1">
          <mxGeometry width="50" height="50" relative="1" as="geometry">
            <mxPoint x="160" y="3870" as="sourcePoint" />
            <mxPoint x="160" y="3590" as="targetPoint" />
          </mxGeometry>
        </mxCell>
        <mxCell id="kJkZv-Xm9j-CdwpZjZzw-311" value="" style="triangle;whiteSpace=wrap;html=1;" vertex="1" parent="1">
          <mxGeometry x="70" y="3687.5" width="50" height="30" as="geometry" />
        </mxCell>
        <mxCell id="kJkZv-Xm9j-CdwpZjZzw-312" value="" style="ellipse;whiteSpace=wrap;html=1;aspect=fixed;" vertex="1" parent="1">
          <mxGeometry x="120" y="3692.5" width="20" height="20" as="geometry" />
        </mxCell>
        <mxCell id="kJkZv-Xm9j-CdwpZjZzw-313" value="" style="endArrow=classic;html=1;rounded=0;entryX=0;entryY=0.5;entryDx=0;entryDy=0;" edge="1" parent="1" target="kJkZv-Xm9j-CdwpZjZzw-311">
          <mxGeometry width="50" height="50" relative="1" as="geometry">
            <mxPoint x="20" y="3700" as="sourcePoint" />
            <mxPoint x="70" y="3647.5" as="targetPoint" />
          </mxGeometry>
        </mxCell>
        <mxCell id="kJkZv-Xm9j-CdwpZjZzw-316" value="" style="endArrow=classic;html=1;rounded=0;entryX=0;entryY=0.5;entryDx=0;entryDy=0;entryPerimeter=0;" edge="1" parent="1" target="kJkZv-Xm9j-CdwpZjZzw-306">
          <mxGeometry width="50" height="50" relative="1" as="geometry">
            <mxPoint x="140" y="3706.5" as="sourcePoint" />
            <mxPoint x="180" y="3708.5" as="targetPoint" />
          </mxGeometry>
        </mxCell>
        <mxCell id="kJkZv-Xm9j-CdwpZjZzw-317" value="" style="endArrow=none;html=1;rounded=0;" edge="1" parent="1">
          <mxGeometry width="50" height="50" relative="1" as="geometry">
            <mxPoint x="10" y="4360" as="sourcePoint" />
            <mxPoint x="10" y="3440" as="targetPoint" />
          </mxGeometry>
        </mxCell>
        <mxCell id="kJkZv-Xm9j-CdwpZjZzw-319" value="" style="shape=or;whiteSpace=wrap;html=1;" vertex="1" parent="1">
          <mxGeometry x="190" y="3780" width="70" height="115" as="geometry" />
        </mxCell>
        <mxCell id="kJkZv-Xm9j-CdwpZjZzw-320" value="" style="ellipse;whiteSpace=wrap;html=1;aspect=fixed;" vertex="1" parent="1">
          <mxGeometry x="260" y="3827.5" width="20" height="20" as="geometry" />
        </mxCell>
        <mxCell id="kJkZv-Xm9j-CdwpZjZzw-321" value="" style="shape=or;whiteSpace=wrap;html=1;" vertex="1" parent="1">
          <mxGeometry x="190" y="3920" width="70" height="115" as="geometry" />
        </mxCell>
        <mxCell id="kJkZv-Xm9j-CdwpZjZzw-322" value="" style="ellipse;whiteSpace=wrap;html=1;aspect=fixed;" vertex="1" parent="1">
          <mxGeometry x="260" y="3967.5" width="20" height="20" as="geometry" />
        </mxCell>
        <mxCell id="kJkZv-Xm9j-CdwpZjZzw-323" value="" style="shape=or;whiteSpace=wrap;html=1;" vertex="1" parent="1">
          <mxGeometry x="190" y="4040" width="70" height="115" as="geometry" />
        </mxCell>
        <mxCell id="kJkZv-Xm9j-CdwpZjZzw-324" value="" style="ellipse;whiteSpace=wrap;html=1;aspect=fixed;" vertex="1" parent="1">
          <mxGeometry x="260" y="4087.5" width="20" height="20" as="geometry" />
        </mxCell>
        <mxCell id="kJkZv-Xm9j-CdwpZjZzw-325" value="" style="shape=or;whiteSpace=wrap;html=1;" vertex="1" parent="1">
          <mxGeometry x="190" y="4170" width="70" height="115" as="geometry" />
        </mxCell>
        <mxCell id="kJkZv-Xm9j-CdwpZjZzw-326" value="" style="ellipse;whiteSpace=wrap;html=1;aspect=fixed;" vertex="1" parent="1">
          <mxGeometry x="260" y="4217.5" width="20" height="20" as="geometry" />
        </mxCell>
        <mxCell id="kJkZv-Xm9j-CdwpZjZzw-327" value="" style="endArrow=classic;html=1;rounded=0;" edge="1" parent="1">
          <mxGeometry width="50" height="50" relative="1" as="geometry">
            <mxPoint x="260" y="3860" as="sourcePoint" />
            <mxPoint x="260" y="3860" as="targetPoint" />
          </mxGeometry>
        </mxCell>
        <mxCell id="kJkZv-Xm9j-CdwpZjZzw-328" value="" style="endArrow=classic;html=1;rounded=0;entryX=0;entryY=0.25;entryDx=0;entryDy=0;entryPerimeter=0;" edge="1" parent="1" target="kJkZv-Xm9j-CdwpZjZzw-319">
          <mxGeometry width="50" height="50" relative="1" as="geometry">
            <mxPoint x="20" y="3810" as="sourcePoint" />
            <mxPoint x="70" y="3760" as="targetPoint" />
          </mxGeometry>
        </mxCell>
        <mxCell id="kJkZv-Xm9j-CdwpZjZzw-329" value="" style="endArrow=classic;html=1;rounded=0;entryX=0;entryY=0.5;entryDx=0;entryDy=0;entryPerimeter=0;" edge="1" parent="1" target="kJkZv-Xm9j-CdwpZjZzw-319">
          <mxGeometry width="50" height="50" relative="1" as="geometry">
            <mxPoint x="10" y="3830" as="sourcePoint" />
            <mxPoint x="60" y="3780" as="targetPoint" />
          </mxGeometry>
        </mxCell>
        <mxCell id="kJkZv-Xm9j-CdwpZjZzw-331" value="" style="endArrow=classic;html=1;rounded=0;entryX=0;entryY=0.75;entryDx=0;entryDy=0;entryPerimeter=0;" edge="1" parent="1" target="kJkZv-Xm9j-CdwpZjZzw-319">
          <mxGeometry width="50" height="50" relative="1" as="geometry">
            <mxPoint x="160" y="3870" as="sourcePoint" />
            <mxPoint x="210" y="3820" as="targetPoint" />
          </mxGeometry>
        </mxCell>
        <mxCell id="kJkZv-Xm9j-CdwpZjZzw-332" value="" style="endArrow=classic;html=1;rounded=0;entryX=-0.038;entryY=0.33;entryDx=0;entryDy=0;entryPerimeter=0;" edge="1" parent="1" target="kJkZv-Xm9j-CdwpZjZzw-321">
          <mxGeometry width="50" height="50" relative="1" as="geometry">
            <mxPoint x="50" y="3960" as="sourcePoint" />
            <mxPoint x="100" y="3910" as="targetPoint" />
          </mxGeometry>
        </mxCell>
        <mxCell id="kJkZv-Xm9j-CdwpZjZzw-333" value="" style="endArrow=none;html=1;rounded=0;" edge="1" parent="1">
          <mxGeometry width="50" height="50" relative="1" as="geometry">
            <mxPoint x="170" y="4080" as="sourcePoint" />
            <mxPoint x="180" y="3555" as="targetPoint" />
          </mxGeometry>
        </mxCell>
        <mxCell id="kJkZv-Xm9j-CdwpZjZzw-334" value="" style="endArrow=classic;html=1;rounded=0;entryX=0.038;entryY=0.663;entryDx=0;entryDy=0;entryPerimeter=0;" edge="1" parent="1" target="kJkZv-Xm9j-CdwpZjZzw-321">
          <mxGeometry width="50" height="50" relative="1" as="geometry">
            <mxPoint x="170" y="3996" as="sourcePoint" />
            <mxPoint x="220" y="3952.5" as="targetPoint" />
          </mxGeometry>
        </mxCell>
        <mxCell id="kJkZv-Xm9j-CdwpZjZzw-335" value="" style="endArrow=none;html=1;rounded=0;" edge="1" parent="1">
          <mxGeometry width="50" height="50" relative="1" as="geometry">
            <mxPoint x="130" y="4190" as="sourcePoint" />
            <mxPoint x="150" y="3700" as="targetPoint" />
          </mxGeometry>
        </mxCell>
        <mxCell id="kJkZv-Xm9j-CdwpZjZzw-336" value="" style="endArrow=classic;html=1;rounded=0;entryX=-0.02;entryY=0.925;entryDx=0;entryDy=0;entryPerimeter=0;" edge="1" parent="1" target="kJkZv-Xm9j-CdwpZjZzw-321">
          <mxGeometry width="50" height="50" relative="1" as="geometry">
            <mxPoint x="130" y="4026" as="sourcePoint" />
            <mxPoint x="190" y="3980" as="targetPoint" />
            <Array as="points" />
          </mxGeometry>
        </mxCell>
        <mxCell id="kJkZv-Xm9j-CdwpZjZzw-337" value="" style="endArrow=classic;html=1;rounded=0;entryX=0.018;entryY=0.342;entryDx=0;entryDy=0;entryPerimeter=0;" edge="1" parent="1" target="kJkZv-Xm9j-CdwpZjZzw-323">
          <mxGeometry width="50" height="50" relative="1" as="geometry">
            <mxPoint x="170" y="4080" as="sourcePoint" />
            <mxPoint x="220" y="4030" as="targetPoint" />
          </mxGeometry>
        </mxCell>
        <mxCell id="kJkZv-Xm9j-CdwpZjZzw-338" value="" style="endArrow=classic;html=1;rounded=0;entryX=-0.023;entryY=0.603;entryDx=0;entryDy=0;entryPerimeter=0;" edge="1" parent="1" target="kJkZv-Xm9j-CdwpZjZzw-323">
          <mxGeometry width="50" height="50" relative="1" as="geometry">
            <mxPoint x="50" y="4109" as="sourcePoint" />
            <mxPoint x="105" y="4050" as="targetPoint" />
          </mxGeometry>
        </mxCell>
        <mxCell id="kJkZv-Xm9j-CdwpZjZzw-339" value="" style="endArrow=classic;html=1;rounded=0;entryX=-0.038;entryY=0.863;entryDx=0;entryDy=0;entryPerimeter=0;" edge="1" parent="1" target="kJkZv-Xm9j-CdwpZjZzw-323">
          <mxGeometry width="50" height="50" relative="1" as="geometry">
            <mxPoint x="20" y="4137.5" as="sourcePoint" />
            <mxPoint x="70" y="4087.5" as="targetPoint" />
          </mxGeometry>
        </mxCell>
        <mxCell id="kJkZv-Xm9j-CdwpZjZzw-340" value="" style="endArrow=classic;html=1;rounded=0;entryX=-0.022;entryY=0.159;entryDx=0;entryDy=0;entryPerimeter=0;" edge="1" parent="1" target="kJkZv-Xm9j-CdwpZjZzw-325">
          <mxGeometry width="50" height="50" relative="1" as="geometry">
            <mxPoint x="130" y="4190" as="sourcePoint" />
            <mxPoint x="179" y="4190" as="targetPoint" />
            <Array as="points" />
          </mxGeometry>
        </mxCell>
        <mxCell id="kJkZv-Xm9j-CdwpZjZzw-341" value="" style="endArrow=classic;html=1;rounded=0;entryX=0;entryY=0.5;entryDx=0;entryDy=0;entryPerimeter=0;" edge="1" parent="1" target="kJkZv-Xm9j-CdwpZjZzw-325">
          <mxGeometry width="50" height="50" relative="1" as="geometry">
            <mxPoint x="50" y="4230" as="sourcePoint" />
            <mxPoint x="100" y="4180" as="targetPoint" />
          </mxGeometry>
        </mxCell>
        <mxCell id="kJkZv-Xm9j-CdwpZjZzw-342" value="" style="endArrow=classic;html=1;rounded=0;entryX=0;entryY=0.75;entryDx=0;entryDy=0;entryPerimeter=0;" edge="1" parent="1" target="kJkZv-Xm9j-CdwpZjZzw-325">
          <mxGeometry width="50" height="50" relative="1" as="geometry">
            <mxPoint x="10" y="4252.5" as="sourcePoint" />
            <mxPoint x="60" y="4202.5" as="targetPoint" />
          </mxGeometry>
        </mxCell>
        <mxCell id="kJkZv-Xm9j-CdwpZjZzw-343" value="" style="shape=or;whiteSpace=wrap;html=1;" vertex="1" parent="1">
          <mxGeometry x="190" y="4300" width="70" height="115" as="geometry" />
        </mxCell>
        <mxCell id="kJkZv-Xm9j-CdwpZjZzw-344" value="" style="ellipse;whiteSpace=wrap;html=1;aspect=fixed;" vertex="1" parent="1">
          <mxGeometry x="260" y="4347.5" width="20" height="20" as="geometry" />
        </mxCell>
        <mxCell id="kJkZv-Xm9j-CdwpZjZzw-346" value="" style="endArrow=classic;html=1;rounded=0;entryX=0.038;entryY=0.326;entryDx=0;entryDy=0;entryPerimeter=0;" edge="1" parent="1" target="kJkZv-Xm9j-CdwpZjZzw-343">
          <mxGeometry width="50" height="50" relative="1" as="geometry">
            <mxPoint x="50" y="4340" as="sourcePoint" />
            <mxPoint x="100" y="4290" as="targetPoint" />
          </mxGeometry>
        </mxCell>
        <mxCell id="kJkZv-Xm9j-CdwpZjZzw-347" value="" style="endArrow=classic;html=1;rounded=0;entryX=0;entryY=0.5;entryDx=0;entryDy=0;entryPerimeter=0;" edge="1" parent="1" target="kJkZv-Xm9j-CdwpZjZzw-343">
          <mxGeometry width="50" height="50" relative="1" as="geometry">
            <mxPoint x="8.5" y="4359" as="sourcePoint" />
            <mxPoint x="151.5" y="4356" as="targetPoint" />
          </mxGeometry>
        </mxCell>
        <mxCell id="kJkZv-Xm9j-CdwpZjZzw-348" value="" style="endArrow=classic;html=1;rounded=0;entryX=-0.029;entryY=0.883;entryDx=0;entryDy=0;entryPerimeter=0;" edge="1" parent="1" target="kJkZv-Xm9j-CdwpZjZzw-343">
          <mxGeometry width="50" height="50" relative="1" as="geometry">
            <mxPoint x="17" y="4400" as="sourcePoint" />
            <mxPoint x="160" y="4397" as="targetPoint" />
          </mxGeometry>
        </mxCell>
        <mxCell id="kJkZv-Xm9j-CdwpZjZzw-349" value="" style="endArrow=classic;html=1;rounded=0;" edge="1" parent="1">
          <mxGeometry width="50" height="50" relative="1" as="geometry">
            <mxPoint x="840" y="560" as="sourcePoint" />
            <mxPoint x="950" y="560" as="targetPoint" />
          </mxGeometry>
        </mxCell>
        <mxCell id="kJkZv-Xm9j-CdwpZjZzw-350" value="C1" style="text;html=1;align=center;verticalAlign=middle;resizable=0;points=[];autosize=1;strokeColor=none;fillColor=none;" vertex="1" parent="1">
          <mxGeometry x="880" y="528" width="40" height="30" as="geometry" />
        </mxCell>
        <mxCell id="kJkZv-Xm9j-CdwpZjZzw-351" value="" style="endArrow=classic;html=1;rounded=0;" edge="1" parent="1">
          <mxGeometry width="50" height="50" relative="1" as="geometry">
            <mxPoint x="830" y="1029.38" as="sourcePoint" />
            <mxPoint x="940" y="1029.38" as="targetPoint" />
          </mxGeometry>
        </mxCell>
        <mxCell id="kJkZv-Xm9j-CdwpZjZzw-352" value="" style="endArrow=classic;html=1;rounded=0;" edge="1" parent="1">
          <mxGeometry width="50" height="50" relative="1" as="geometry">
            <mxPoint x="820" y="1520" as="sourcePoint" />
            <mxPoint x="930" y="1520" as="targetPoint" />
          </mxGeometry>
        </mxCell>
        <mxCell id="kJkZv-Xm9j-CdwpZjZzw-353" value="" style="endArrow=classic;html=1;rounded=0;" edge="1" parent="1">
          <mxGeometry width="50" height="50" relative="1" as="geometry">
            <mxPoint x="795" y="1880" as="sourcePoint" />
            <mxPoint x="905" y="1880" as="targetPoint" />
          </mxGeometry>
        </mxCell>
        <mxCell id="kJkZv-Xm9j-CdwpZjZzw-354" value="" style="endArrow=classic;html=1;rounded=0;" edge="1" parent="1">
          <mxGeometry width="50" height="50" relative="1" as="geometry">
            <mxPoint x="820" y="2349.09" as="sourcePoint" />
            <mxPoint x="930" y="2349.09" as="targetPoint" />
          </mxGeometry>
        </mxCell>
        <mxCell id="kJkZv-Xm9j-CdwpZjZzw-355" value="" style="endArrow=classic;html=1;rounded=0;" edge="1" parent="1">
          <mxGeometry width="50" height="50" relative="1" as="geometry">
            <mxPoint x="820" y="2709.09" as="sourcePoint" />
            <mxPoint x="930" y="2709.09" as="targetPoint" />
          </mxGeometry>
        </mxCell>
        <mxCell id="kJkZv-Xm9j-CdwpZjZzw-356" value="" style="endArrow=classic;html=1;rounded=0;" edge="1" parent="1">
          <mxGeometry width="50" height="50" relative="1" as="geometry">
            <mxPoint x="820" y="3189.09" as="sourcePoint" />
            <mxPoint x="930" y="3189.09" as="targetPoint" />
          </mxGeometry>
        </mxCell>
        <mxCell id="kJkZv-Xm9j-CdwpZjZzw-357" value="C2" style="text;html=1;align=center;verticalAlign=middle;resizable=0;points=[];autosize=1;strokeColor=none;fillColor=none;" vertex="1" parent="1">
          <mxGeometry x="870" y="998" width="40" height="30" as="geometry" />
        </mxCell>
        <mxCell id="kJkZv-Xm9j-CdwpZjZzw-358" value="C3" style="text;html=1;align=center;verticalAlign=middle;resizable=0;points=[];autosize=1;strokeColor=none;fillColor=none;" vertex="1" parent="1">
          <mxGeometry x="860" y="1488" width="40" height="30" as="geometry" />
        </mxCell>
        <mxCell id="kJkZv-Xm9j-CdwpZjZzw-359" value="C4" style="text;html=1;align=center;verticalAlign=middle;resizable=0;points=[];autosize=1;strokeColor=none;fillColor=none;" vertex="1" parent="1">
          <mxGeometry x="830" y="1858" width="40" height="30" as="geometry" />
        </mxCell>
        <mxCell id="kJkZv-Xm9j-CdwpZjZzw-360" value="C5" style="text;html=1;align=center;verticalAlign=middle;resizable=0;points=[];autosize=1;strokeColor=none;fillColor=none;" vertex="1" parent="1">
          <mxGeometry x="850" y="2318" width="40" height="30" as="geometry" />
        </mxCell>
        <mxCell id="kJkZv-Xm9j-CdwpZjZzw-361" value="C6" style="text;html=1;align=center;verticalAlign=middle;resizable=0;points=[];autosize=1;strokeColor=none;fillColor=none;" vertex="1" parent="1">
          <mxGeometry x="860" y="2678" width="40" height="30" as="geometry" />
        </mxCell>
        <mxCell id="kJkZv-Xm9j-CdwpZjZzw-362" value="C7" style="text;html=1;align=center;verticalAlign=middle;resizable=0;points=[];autosize=1;strokeColor=none;fillColor=none;" vertex="1" parent="1">
          <mxGeometry x="860" y="3158" width="40" height="30" as="geometry" />
        </mxCell>
        <mxCell id="kJkZv-Xm9j-CdwpZjZzw-363" value="" style="endArrow=classic;html=1;rounded=0;" edge="1" parent="1">
          <mxGeometry width="50" height="50" relative="1" as="geometry">
            <mxPoint x="220" y="3443" as="sourcePoint" />
            <mxPoint x="320" y="3443" as="targetPoint" />
          </mxGeometry>
        </mxCell>
        <mxCell id="kJkZv-Xm9j-CdwpZjZzw-364" value="anode[0]" style="text;html=1;align=center;verticalAlign=middle;resizable=0;points=[];autosize=1;strokeColor=none;fillColor=none;" vertex="1" parent="1">
          <mxGeometry x="235" y="3408" width="70" height="30" as="geometry" />
        </mxCell>
        <mxCell id="kJkZv-Xm9j-CdwpZjZzw-365" value="" style="endArrow=classic;html=1;rounded=0;" edge="1" parent="1">
          <mxGeometry width="50" height="50" relative="1" as="geometry">
            <mxPoint x="300" y="3567.05" as="sourcePoint" />
            <mxPoint x="400" y="3567.05" as="targetPoint" />
          </mxGeometry>
        </mxCell>
        <mxCell id="kJkZv-Xm9j-CdwpZjZzw-366" value="" style="endArrow=classic;html=1;rounded=0;" edge="1" parent="1">
          <mxGeometry width="50" height="50" relative="1" as="geometry">
            <mxPoint x="290" y="3707.05" as="sourcePoint" />
            <mxPoint x="390" y="3707.05" as="targetPoint" />
          </mxGeometry>
        </mxCell>
        <mxCell id="kJkZv-Xm9j-CdwpZjZzw-367" value="" style="endArrow=classic;html=1;rounded=0;" edge="1" parent="1">
          <mxGeometry width="50" height="50" relative="1" as="geometry">
            <mxPoint x="280" y="3837.05" as="sourcePoint" />
            <mxPoint x="380" y="3837.05" as="targetPoint" />
          </mxGeometry>
        </mxCell>
        <mxCell id="kJkZv-Xm9j-CdwpZjZzw-368" value="" style="endArrow=classic;html=1;rounded=0;" edge="1" parent="1">
          <mxGeometry width="50" height="50" relative="1" as="geometry">
            <mxPoint x="280" y="3977.05" as="sourcePoint" />
            <mxPoint x="380" y="3977.05" as="targetPoint" />
          </mxGeometry>
        </mxCell>
        <mxCell id="kJkZv-Xm9j-CdwpZjZzw-369" value="" style="endArrow=classic;html=1;rounded=0;" edge="1" parent="1">
          <mxGeometry width="50" height="50" relative="1" as="geometry">
            <mxPoint x="280" y="4097.05" as="sourcePoint" />
            <mxPoint x="380" y="4097.05" as="targetPoint" />
          </mxGeometry>
        </mxCell>
        <mxCell id="kJkZv-Xm9j-CdwpZjZzw-370" value="" style="endArrow=classic;html=1;rounded=0;" edge="1" parent="1">
          <mxGeometry width="50" height="50" relative="1" as="geometry">
            <mxPoint x="280" y="4227.05" as="sourcePoint" />
            <mxPoint x="380" y="4227.05" as="targetPoint" />
          </mxGeometry>
        </mxCell>
        <mxCell id="kJkZv-Xm9j-CdwpZjZzw-371" value="" style="endArrow=classic;html=1;rounded=0;" edge="1" parent="1">
          <mxGeometry width="50" height="50" relative="1" as="geometry">
            <mxPoint x="280" y="4357.05" as="sourcePoint" />
            <mxPoint x="380" y="4357.05" as="targetPoint" />
          </mxGeometry>
        </mxCell>
        <mxCell id="kJkZv-Xm9j-CdwpZjZzw-372" value="anode[1]" style="text;html=1;align=center;verticalAlign=middle;resizable=0;points=[];autosize=1;strokeColor=none;fillColor=none;" vertex="1" parent="1">
          <mxGeometry x="305" y="3538" width="70" height="30" as="geometry" />
        </mxCell>
        <mxCell id="kJkZv-Xm9j-CdwpZjZzw-373" value="anode[2]" style="text;html=1;align=center;verticalAlign=middle;resizable=0;points=[];autosize=1;strokeColor=none;fillColor=none;" vertex="1" parent="1">
          <mxGeometry x="295" y="3688" width="70" height="30" as="geometry" />
        </mxCell>
        <mxCell id="kJkZv-Xm9j-CdwpZjZzw-374" value="anode[3]" style="text;html=1;align=center;verticalAlign=middle;resizable=0;points=[];autosize=1;strokeColor=none;fillColor=none;" vertex="1" parent="1">
          <mxGeometry x="285" y="3818" width="70" height="30" as="geometry" />
        </mxCell>
        <mxCell id="kJkZv-Xm9j-CdwpZjZzw-375" value="anode[4]" style="text;html=1;align=center;verticalAlign=middle;resizable=0;points=[];autosize=1;strokeColor=none;fillColor=none;" vertex="1" parent="1">
          <mxGeometry x="285" y="3948" width="70" height="30" as="geometry" />
        </mxCell>
        <mxCell id="kJkZv-Xm9j-CdwpZjZzw-376" value="anode[5]" style="text;html=1;align=center;verticalAlign=middle;resizable=0;points=[];autosize=1;strokeColor=none;fillColor=none;" vertex="1" parent="1">
          <mxGeometry x="275" y="4068" width="70" height="30" as="geometry" />
        </mxCell>
        <mxCell id="kJkZv-Xm9j-CdwpZjZzw-377" value="anode[6]" style="text;html=1;align=center;verticalAlign=middle;resizable=0;points=[];autosize=1;strokeColor=none;fillColor=none;" vertex="1" parent="1">
          <mxGeometry x="285" y="4198" width="70" height="30" as="geometry" />
        </mxCell>
        <mxCell id="kJkZv-Xm9j-CdwpZjZzw-378" value="anode[7]" style="text;html=1;align=center;verticalAlign=middle;resizable=0;points=[];autosize=1;strokeColor=none;fillColor=none;" vertex="1" parent="1">
          <mxGeometry x="285" y="4328" width="70" height="30" as="geometry" />
        </mxCell>
      </root>
    </mxGraphModel>
  </diagram>
</mxfile>
